# Blender 4.5.1 LTS
# www.blender.org
mtllib spring.mtl
o Spring
v 0.113980 1.039810 0.001945
v 0.114302 1.011814 -0.002066
v 0.086020 1.011472 -0.001945
v 0.085698 1.039469 0.002066
v 0.099983 0.019798 0.002835
v 0.120000 -0.000000 0.000120
v 0.100017 -0.019798 -0.002835
v 0.080000 0.000000 -0.000120
v 0.099983 0.019798 0.002835
v 0.120000 -0.000000 0.000120
v 0.100017 -0.019798 -0.002835
v 0.080000 0.000000 -0.000120
v 0.071369 0.031155 -0.066448
v 0.085116 0.014269 -0.084499
v 0.070138 -0.007854 -0.075211
v 0.056391 0.009033 -0.057160
v 0.003588 0.044499 -0.094388
v 0.001007 0.031162 -0.119197
v -0.003588 0.006783 -0.105612
v -0.001007 0.020120 -0.080803
v -0.062379 0.056307 -0.066955
v -0.082389 0.046757 -0.084516
v -0.078878 0.020616 -0.074302
v -0.058868 0.030166 -0.056741
v -0.088994 0.067713 -0.002982
v -0.116699 0.062111 -0.001966
v -0.111006 0.034851 0.002982
v -0.083301 0.040453 0.001966
v -0.063073 0.078762 0.059314
v -0.082847 0.077231 0.079480
v -0.078184 0.049443 0.081943
v -0.058410 0.050974 0.061777
v -0.002282 0.089492 0.084611
v -0.002748 0.092064 0.112774
v 0.002282 0.064354 0.115389
v 0.002748 0.061782 0.087226
v 0.057228 0.099950 0.059845
v 0.075806 0.106569 0.080120
v 0.084029 0.079538 0.081412
v 0.065451 0.072918 0.061137
v 0.081560 0.110184 0.001383
v 0.107745 0.120707 0.003293
v 0.118440 0.094944 -0.001383
v 0.092255 0.084421 -0.003293
v 0.057550 0.120254 -0.056302
v 0.076572 0.134452 -0.071683
v 0.083707 0.110516 -0.084955
v 0.064685 0.096317 -0.069574
v 0.000365 0.130217 -0.080105
v 0.003553 0.147780 -0.102045
v -0.000365 0.126193 -0.119895
v -0.003553 0.108630 -0.097955
v -0.056615 0.140137 -0.056387
v -0.067469 0.160685 -0.072510
v -0.084642 0.141915 -0.084870
v -0.073788 0.121367 -0.068747
v -0.080371 0.150076 0.000684
v -0.096168 0.173160 -0.003506
v -0.119629 0.157617 -0.000684
v -0.103832 0.134532 0.003506
v -0.056455 0.160096 0.058140
v -0.068285 0.185217 0.063529
v -0.084801 0.173237 0.083117
v -0.072972 0.148117 0.077728
v 0.001675 0.170260 0.082335
v -0.003155 0.196868 0.090623
v -0.001675 0.188714 0.117665
v 0.003155 0.162106 0.109377
v 0.060746 0.180625 0.057750
v 0.060202 0.208144 0.064263
v 0.080511 0.203991 0.083507
v 0.081055 0.176472 0.076994
v 0.085827 0.191244 -0.002520
v 0.085889 0.219073 0.002531
v 0.114173 0.219013 0.002520
v 0.114111 0.191183 -0.002531
v 0.060160 0.202164 -0.064207
v 0.060791 0.229700 -0.057778
v 0.081097 0.233734 -0.077050
v 0.080466 0.206197 -0.083479
v -0.003148 0.213428 -0.090546
v 0.001689 0.240071 -0.082376
v 0.003148 0.248110 -0.109454
v -0.001689 0.221467 -0.117624
v -0.068224 0.225068 -0.063475
v -0.056466 0.250240 -0.058171
v -0.073033 0.262111 -0.077782
v -0.084791 0.236939 -0.083086
v -0.096083 0.237113 0.003503
v -0.080387 0.260265 -0.000700
v -0.103917 0.275708 -0.003503
v -0.119613 0.252556 0.000700
v -0.067408 0.249576 0.072448
v -0.056629 0.270205 0.056379
v -0.073849 0.288886 0.068809
v -0.084628 0.268256 0.084878
v 0.003555 0.262467 0.101958
v 0.000350 0.280124 0.080096
v -0.003555 0.301635 0.098042
v -0.000350 0.283978 0.119904
v 0.076515 0.275784 0.071621
v 0.057525 0.290086 0.056297
v 0.064742 0.313960 0.069636
v 0.083732 0.299658 0.084960
v 0.107665 0.289516 -0.003299
v 0.081527 0.300151 -0.001369
v 0.092335 0.325868 0.003299
v 0.118473 0.315234 0.001369
v 0.075747 0.303643 -0.080073
v 0.057206 0.310380 -0.059804
v 0.065509 0.337383 -0.061184
v 0.084051 0.330646 -0.081453
v -0.002758 0.318138 -0.112708
v -0.002270 0.320830 -0.084556
v 0.002758 0.348529 -0.087292
v 0.002270 0.345837 -0.115444
v -0.082814 0.332962 -0.079431
v -0.063020 0.331551 -0.059276
v -0.058443 0.359346 -0.061826
v -0.078237 0.360757 -0.081981
v -0.116651 0.348074 0.001979
v -0.088921 0.342591 0.002974
v -0.083349 0.369875 -0.001979
v -0.111079 0.375358 -0.002974
v -0.082353 0.363422 0.084500
v -0.062328 0.353986 0.066895
v -0.058904 0.380168 0.056757
v -0.078929 0.389604 0.074362
v 0.001028 0.378953 0.119154
v 0.003421 0.365769 0.094245
v -0.001028 0.390278 0.080846
v -0.003421 0.403462 0.105755
v 0.084986 0.394607 0.084261
v 0.071092 0.377961 0.066099
v 0.056271 0.400265 0.056996
v 0.070165 0.416911 0.075158
v 0.120000 0.410322 0.000012
v 0.100067 0.390578 -0.003572
v 0.080000 0.410191 -0.000012
v 0.099933 0.429935 0.003572
v 0.084989 0.426036 -0.084230
v 0.070261 0.403622 -0.075249
v 0.056268 0.420118 -0.057027
v 0.070996 0.442532 -0.066008
v 0.001051 0.441686 -0.119115
v -0.003414 0.417090 -0.105883
v -0.001051 0.430109 -0.080885
v 0.003414 0.454705 -0.094117
v -0.082298 0.457210 -0.084475
v -0.079007 0.430965 -0.074455
v -0.058959 0.440226 -0.056782
v -0.062250 0.466471 -0.066802
v -0.116577 0.472548 -0.001999
v -0.111190 0.445228 0.002961
v -0.083423 0.450529 0.001999
v -0.088810 0.477849 -0.002961
v -0.082763 0.487648 0.079355
v -0.078318 0.459845 0.082040
v -0.058494 0.461070 0.061902
v -0.062939 0.488873 0.059217
v -0.002773 0.502458 0.112604
v 0.002251 0.474778 0.115529
v 0.002773 0.471901 0.087396
v -0.002251 0.499581 0.084471
v 0.075658 0.516937 0.080000
v 0.084085 0.489980 0.081516
v 0.065599 0.483063 0.061256
v 0.057172 0.510020 0.059741
v 0.107541 0.531047 0.003308
v 0.118524 0.505401 -0.001347
v 0.092459 0.494594 -0.003308
v 0.081476 0.520240 0.001347
v 0.076427 0.544761 -0.071525
v 0.083771 0.520983 -0.084966
v 0.064829 0.506521 -0.069732
v 0.057486 0.530300 -0.056291
v 0.003557 0.558058 -0.101825
v -0.000326 0.536666 -0.119917
v -0.003557 0.518865 -0.098175
v 0.000326 0.540257 -0.080083
v -0.067315 0.570930 -0.072353
v -0.084606 0.552388 -0.084890
v -0.073942 0.531634 -0.068904
v -0.056650 0.550176 -0.056367
v -0.095952 0.583374 -0.003498
v -0.119586 0.568086 -0.000723
v -0.104048 0.544832 0.003498
v -0.080414 0.560119 0.000723
v -0.068129 0.595399 0.063391
v -0.084775 0.583698 0.083038
v -0.073128 0.558447 0.077866
v -0.056482 0.570149 0.058219
v -0.003136 0.607022 0.090428
v -0.001710 0.599161 0.117561
v 0.003136 0.572465 0.109572
v 0.001710 0.580326 0.082439
v 0.060094 0.618270 0.064121
v 0.080395 0.614421 0.083436
v 0.081163 0.586858 0.077136
v 0.060862 0.590707 0.057821
v 0.085733 0.629176 0.002503
v 0.114016 0.629422 0.002548
v 0.114267 0.601594 -0.002503
v 0.085984 0.601347 -0.002548
v 0.060677 0.639782 -0.057708
v 0.080988 0.644119 -0.076908
v 0.080580 0.616628 -0.083549
v 0.060269 0.612292 -0.064349
v 0.001654 0.650136 -0.082272
v 0.003166 0.658468 -0.109259
v -0.001654 0.631915 -0.117728
v -0.003166 0.623583 -0.090741
v -0.056440 0.660292 -0.058093
v -0.072877 0.672440 -0.077645
v -0.084817 0.647400 -0.083164
v -0.068380 0.635253 -0.063612
v -0.080345 0.670308 -0.000661
v -0.103701 0.686005 -0.003510
v -0.119655 0.663025 0.000661
v -0.096299 0.647328 0.003510
v -0.056594 0.680245 0.056400
v -0.073694 0.699152 0.068652
v -0.084663 0.678730 0.084857
v -0.067563 0.659823 0.072605
v 0.000389 0.690165 0.080119
v -0.003551 0.711869 0.097822
v -0.000389 0.694450 0.119881
v 0.003551 0.672746 0.102178
v 0.057590 0.700132 0.056309
v 0.064598 0.724162 0.069478
v 0.083667 0.710125 0.084948
v 0.076659 0.686094 0.071779
v 0.081613 0.710207 -0.001405
v 0.092132 0.736041 0.003284
v 0.118387 0.725690 0.001405
v 0.107868 0.699857 -0.003284
v 0.057263 0.720451 -0.059909
v 0.065362 0.747526 -0.061065
v 0.083994 0.741088 -0.081348
v 0.075895 0.714012 -0.080192
v -0.002300 0.730920 -0.084697
v 0.002733 0.758647 -0.087123
v 0.002300 0.756260 -0.115303
v -0.002733 0.728533 -0.112877
v -0.063155 0.741663 -0.059374
v -0.058360 0.769440 -0.061701
v -0.078102 0.771158 -0.081883
v -0.082897 0.743380 -0.079556
v -0.089106 0.752728 0.002996
v -0.083228 0.779950 -0.001946
v -0.110894 0.785733 -0.002996
v -0.116772 0.758512 0.001946
v -0.062458 0.764151 0.067048
v -0.058813 0.790227 0.056716
v -0.078799 0.799952 0.074209
v -0.082444 0.773875 0.084541
v 0.003432 0.775964 0.094457
v -0.000990 0.800326 0.080784
v -0.003432 0.813779 0.105543
v 0.000990 0.789418 0.119216
v 0.071250 0.788188 0.066249
v 0.056277 0.810306 0.056947
v 0.070007 0.827197 0.075008
v 0.084980 0.805078 0.084310
v 0.100287 0.800836 -0.003572
v 0.080002 0.820230 -0.000051
v 0.099713 0.840189 0.003572
v 0.119998 0.820796 0.000051
v 0.070419 0.813912 -0.075399
v 0.056265 0.830160 -0.057078
v 0.070838 0.852755 -0.065858
v 0.084992 0.836507 -0.084179
v -0.003402 0.827411 -0.106093
v -0.001088 0.840159 -0.080951
v 0.003402 0.864897 -0.093907
v 0.001088 0.852149 -0.119049
v -0.079135 0.841316 -0.074607
v -0.059053 0.850287 -0.056825
v -0.062122 0.876632 -0.066650
v -0.082204 0.867661 -0.084432
v -0.111372 0.855607 0.002938
v -0.083548 0.860606 0.002031
v -0.088628 0.887983 -0.002938
v -0.116452 0.882984 -0.002031
v -0.078451 0.870249 0.082135
v -0.058580 0.871167 0.062028
v -0.062806 0.898982 0.059122
v -0.082677 0.898064 0.079229
v 0.002220 0.885204 0.115667
v 0.002798 0.882021 0.087568
v -0.002220 0.909668 0.084333
v -0.002798 0.912851 0.112432
v 0.084139 0.900424 0.081618
v 0.065748 0.893210 0.061377
v 0.057117 0.920089 0.059639
v 0.075509 0.927303 0.079880
v 0.118606 0.915859 -0.001310
v 0.092664 0.904770 -0.003323
v 0.081394 0.930295 0.001310
v 0.107336 0.941384 0.003323
v 0.083835 0.931450 -0.084975
v 0.064975 0.916727 -0.069890
v 0.057422 0.940345 -0.056282
v 0.076282 0.955068 -0.071367
v -0.000287 0.947138 -0.119935
v -0.003560 0.929103 -0.098395
v 0.000287 0.950298 -0.080065
v 0.003560 0.968333 -0.101605
v -0.084569 0.962861 -0.084908
v -0.074096 0.941904 -0.069062
v -0.056688 0.960216 -0.056349
v -0.067161 0.981173 -0.072195
v -0.119540 0.978555 -0.000762
v -0.104264 0.955133 0.003490
v -0.080460 0.970163 0.000762
v -0.095736 0.993585 -0.003490
v -0.084746 0.994157 0.082957
v -0.073284 0.968779 0.078002
v -0.056511 0.980202 0.058300
v -0.067973 1.005580 0.063255
v -0.001864 1.009641 0.117424
v 0.003227 0.982878 0.109819
v 0.001864 0.990359 0.082576
v -0.003227 1.017122 0.090181
v 0.080344 1.026121 0.083513
v 0.081462 0.998495 0.077552
v 0.061163 1.001860 0.058146
v 0.060044 1.029486 0.064107
v 0.113980 1.039810 0.001945
v 0.114302 1.011814 -0.002066
v 0.086020 1.011472 -0.001945
v 0.085698 1.039469 0.002066
vn -0.0059 0.1417 -0.9899
vn -0.0059 -0.1417 0.9899
vn 0.1691 0.9813 0.0920
vn 0.9261 0.0502 -0.3739
vn 0.1740 -0.9577 -0.2293
vn -0.9260 -0.0675 0.3715
vn 0.1578 0.9827 0.0969
vn 0.7177 0.1074 -0.6881
vn 0.0838 -0.9414 -0.3267
vn -0.7191 -0.1686 0.6742
vn 0.1877 0.9761 0.1100
vn 0.0451 0.2426 -0.9691
vn -0.1711 -0.8887 -0.4253
vn -0.0620 -0.3317 0.9414
vn 0.3075 0.9497 0.0598
vn -0.6101 0.3616 -0.7050
vn -0.4914 -0.8259 -0.2765
vn 0.5461 -0.4950 0.6758
vn 0.4050 0.8991 -0.1661
vn -0.8751 0.4758 -0.0882
vn -0.6502 -0.7472 0.1377
vn 0.7635 -0.6351 0.1176
vn 0.2791 0.8233 -0.4942
vn -0.6455 0.5833 0.4931
vn -0.4402 -0.6574 0.6116
vn 0.5544 -0.7513 -0.3580
vn -0.1341 0.7246 -0.6760
vn -0.1257 0.6809 0.7215
vn 0.1030 -0.5564 0.8245
vn 0.1563 -0.8455 -0.5107
vn -0.6384 0.6008 -0.4812
vn 0.3411 0.7687 0.5411
vn 0.6882 -0.4477 0.5709
vn -0.1421 -0.9138 -0.3805
vn -0.8851 0.4576 0.0847
vn 0.5149 0.8431 0.1550
vn 0.9414 -0.3315 -0.0616
vn -0.2212 -0.9591 -0.1768
vn -0.6357 0.2957 0.7130
vn 0.3958 0.9041 -0.1611
vn 0.6629 -0.2109 -0.7184
vn -0.1804 -0.9808 -0.0747
vn 0.0228 0.1234 0.9921
vn 0.1742 0.9485 -0.2647
vn -0.0162 -0.0868 -0.9961
vn -0.1804 -0.9810 -0.0718
vn 0.6989 -0.0545 0.7131
vn 0.0377 0.9757 -0.2156
vn -0.7015 0.0384 -0.7116
vn -0.2740 -0.9614 -0.0245
vn 0.9722 -0.2303 0.0426
vn 0.0167 0.9834 -0.1809
vn -0.9862 0.1630 -0.0303
vn -0.3453 -0.9230 0.1696
vn 0.6990 -0.3961 -0.5954
vn -0.0095 0.9700 -0.2430
vn -0.7141 0.2854 0.6392
vn -0.2187 -0.8688 0.4443
vn 0.1015 -0.5482 -0.8302
vn -0.1725 0.9345 -0.3115
vn -0.0748 0.4032 0.9121
vn 0.1470 -0.7988 0.5833
vn -0.4229 -0.6788 -0.6004
vn -0.4377 0.8744 -0.2094
vn 0.5347 0.5154 0.6696
vn 0.5776 -0.7166 0.3910
vn -0.5976 -0.7884 -0.1459
vn -0.5938 0.7912 0.1464
vn 0.7769 0.6191 0.1144
vn 0.7745 -0.6220 -0.1150
vn -0.4403 -0.8723 0.2126
vn -0.4200 0.6823 0.5984
vn 0.5793 0.7140 -0.3933
vn 0.5329 -0.5186 -0.6686
vn -0.1722 -0.9330 0.3158
vn 0.1023 0.5523 0.8273
vn 0.1466 0.7966 -0.5865
vn -0.0754 -0.4066 -0.9105
vn -0.0063 -0.9692 0.2460
vn 0.6981 0.4008 0.5933
vn -0.2214 0.8669 -0.4465
vn -0.7138 -0.2890 -0.6379
vn 0.0210 -0.9833 0.1809
vn 0.9709 0.2354 -0.0436
vn -0.3491 0.9217 -0.1693
vn -0.9855 -0.1666 0.0310
vn 0.0407 -0.9763 0.2128
vn 0.6980 0.0597 -0.7136
vn -0.2768 0.9605 0.0275
vn -0.7009 -0.0421 0.7120
vn 0.1744 -0.9495 0.2608
vn 0.0219 -0.1182 -0.9928
vn -0.1803 0.9807 0.0760
vn -0.0155 0.0832 0.9964
vn 0.3934 -0.9057 0.1583
vn -0.6374 -0.2908 -0.7135
vn -0.1773 0.9811 0.0778
vn 0.6640 0.2073 0.7184
vn 0.5116 -0.8451 -0.1554
vn -0.8875 -0.4531 -0.0839
vn -0.2169 0.9600 0.1770
vn 0.9427 0.3281 0.0609
vn 0.3386 -0.7711 -0.5392
vn -0.6400 -0.5968 0.4839
vn -0.1389 0.9155 0.3777
vn 0.6890 0.4444 -0.5726
vn -0.1262 -0.6837 -0.7188
vn -0.1335 -0.7213 0.6796
vn 0.1568 0.8478 0.5066
vn 0.1024 0.5533 -0.8266
vn -0.6443 -0.5863 -0.4911
vn 0.2823 -0.8207 0.4967
vn 0.5522 0.7544 0.3549
vn -0.4423 0.6546 -0.6131
vn -0.8733 -0.4791 0.0888
vn 0.4092 -0.8972 0.1658
vn 0.7602 0.6388 -0.1183
vn -0.6532 0.7447 -0.1372
vn -0.6086 -0.3652 0.7044
vn 0.3106 -0.9484 -0.0634
vn 0.5437 0.4996 -0.6744
vn -0.4935 0.8237 0.2794
vn 0.0456 -0.2454 0.9683
vn 0.1799 -0.9769 -0.1152
vn -0.0636 0.3435 -0.9370
vn -0.1632 0.8881 0.4298
vn 0.7177 -0.1223 0.6855
vn 0.1488 -0.9831 -0.1066
vn -0.7187 0.1729 -0.6735
vn 0.0915 0.9378 0.3349
vn 1.0000 0.0028 0.0005
vn 0.1730 -0.9687 -0.1780
vn -1.0000 -0.0040 -0.0007
vn 0.1667 0.9698 0.1782
vn 0.7179 0.1279 -0.6843
vn 0.0960 -0.9359 -0.3388
vn -0.7187 -0.1808 0.6714
vn 0.1442 0.9833 0.1113
vn 0.0467 0.2509 -0.9669
vn -0.1627 -0.8855 -0.4353
vn -0.0650 -0.3510 0.9341
vn 0.1798 0.9761 0.1219
vn -0.6064 0.3706 -0.7036
vn -0.4966 -0.8204 -0.2834
vn 0.5400 -0.5063 0.6724
vn 0.3151 0.9466 0.0684
vn -0.8704 0.4841 -0.0897
vn -0.6577 -0.7408 0.1365
vn 0.7552 -0.6446 0.1194
vn 0.4158 0.8943 -0.1652
vn -0.6424 0.5909 0.4880
vn -0.4457 -0.6502 0.6153
vn 0.5487 -0.7591 -0.3502
vn 0.2871 0.8167 -0.5005
vn -0.1269 0.6879 0.7147
vn 0.1015 -0.5486 0.8299
vn 0.1574 -0.8514 -0.5003
vn -0.1326 0.7162 -0.6852
vn 0.3348 0.7747 0.5364
vn 0.6902 -0.4393 0.5751
vn -0.1339 -0.9180 -0.3733
vn -0.6426 0.5907 -0.4880
vn 0.5063 0.8481 0.1560
vn 0.9446 -0.3227 -0.0599
vn -0.2101 -0.9615 -0.1773
vn -0.8912 0.4461 0.0826
vn 0.3896 0.9080 -0.1540
vn 0.6656 -0.2017 -0.7186
vn -0.1727 -0.9815 -0.0825
vn -0.6401 0.2832 0.7142
vn 0.1747 0.9511 -0.2547
vn -0.0144 -0.0775 -0.9969
vn -0.1802 -0.9802 -0.0825
vn 0.0204 0.1102 0.9937
vn 0.0453 0.9770 -0.2083
vn -0.7000 0.0478 -0.7126
vn -0.2810 -0.9592 -0.0321
vn 0.6966 -0.0677 0.7143
vn 0.0276 0.9831 -0.1809
vn -0.9845 0.1722 -0.0320
vn -0.3549 -0.9195 0.1689
vn 0.9689 -0.2432 0.0450
vn -0.0014 0.9681 -0.2506
vn -0.7133 0.2944 0.6360
vn -0.2256 -0.8641 0.4500
vn 0.6967 -0.4080 -0.5900
vn -0.1718 0.9308 -0.3225
vn -0.0764 0.4118 0.9081
vn 0.1460 -0.7931 0.5913
vn 0.1035 -0.5587 -0.8229
vn -0.4444 0.8690 -0.2175
vn 0.5301 0.5235 0.6670
vn 0.5818 -0.7099 0.3968
vn -0.4155 -0.6877 -0.5953
vn -0.6036 0.7840 0.1451
vn 0.7708 0.6265 0.1158
vn 0.7806 -0.6146 -0.1136
vn -0.5877 -0.7955 -0.1472
vn -0.4273 0.6733 0.6034
vn 0.5750 0.7206 -0.3874
vn 0.5375 -0.5105 -0.6711
vn -0.4335 -0.8776 0.2044
vn 0.1003 0.5417 0.8346
vn 0.1477 0.8023 -0.5784
vn -0.0739 -0.3979 -0.9144
vn -0.1728 -0.9366 0.3049
vn 0.7003 0.3889 0.5986
vn -0.2145 0.8716 -0.4408
vn -0.7146 -0.2800 -0.6411
vn -0.0143 -0.9711 0.2384
vn 0.9741 0.2225 -0.0412
vn -0.3394 0.9251 -0.1700
vn -0.9871 -0.1574 0.0293
vn 0.0101 -0.9834 0.1809
vn 0.7002 0.0464 -0.7124
vn -0.2698 0.9627 0.0200
vn -0.7024 -0.0327 0.7110
vn 0.0330 -0.9749 0.2200
vn 0.0243 -0.1314 -0.9910
vn -0.1805 0.9814 0.0653
vn -0.0172 0.0925 0.9956
vn 0.1739 -0.9468 0.2708
vn -0.6329 -0.3033 -0.7123
vn -0.1850 0.9802 0.0699
vn 0.6613 0.2165 0.7182
vn 0.3995 -0.9017 0.1654
vn -0.8814 -0.4646 -0.0860
vn -0.2279 0.9575 0.1766
vn 0.9395 0.3369 0.0626
vn 0.5201 -0.8400 -0.1545
vn -0.6358 -0.6068 0.4770
vn -0.1471 0.9112 0.3848
vn 0.6870 0.4528 -0.5684
vn 0.3449 -0.7650 -0.5439
vn -0.1351 -0.7296 0.6704
vn 0.1557 0.8418 0.5169
vn 0.1038 0.5612 -0.8211
vn -0.1249 -0.6767 -0.7256
vn 0.2742 -0.8273 0.4903
vn 0.5578 0.7465 0.3627
vn -0.4368 0.6617 -0.6094
vn -0.6473 -0.5786 -0.4962
vn 0.3985 -0.9019 0.1666
vn 0.7685 0.6292 -0.1165
vn -0.6456 0.7510 -0.1384
vn -0.8779 -0.4708 0.0873
vn 0.3031 -0.9514 -0.0553
vn 0.5498 0.4884 -0.6776
vn -0.4882 0.8290 0.2728
vn -0.6122 -0.3565 0.7058
vn 0.1801 -0.9781 -0.1042
vn -0.0613 0.3312 -0.9416
vn -0.1640 0.8923 0.4206
vn 0.0439 -0.2363 0.9707
vn 0.1564 -0.9827 -0.0989
vn -0.7186 0.1598 -0.6768
vn 0.0841 0.9408 0.3283
vn 0.7173 -0.1130 0.6876
vn 0.1834 -0.9669 -0.1777
vn -0.9998 -0.0174 -0.0032
vn 0.1563 0.9714 0.1785
vn 0.9999 0.0122 0.0023
vn 0.1033 -0.9328 -0.3454
vn -0.7186 -0.1938 0.6679
vn 0.1366 0.9835 0.1190
vn 0.7182 0.1372 -0.6821
vn -0.1619 -0.8811 -0.4444
vn -0.0673 -0.3632 0.9293
vn 0.1796 0.9747 0.1330
vn 0.0483 0.2600 -0.9644
vn -0.5018 -0.8149 -0.2900
vn 0.5337 -0.5172 0.6690
vn 0.3225 0.9435 0.0766
vn -0.6026 0.3793 -0.7021
vn -0.6651 -0.7344 0.1354
vn 0.7467 -0.6540 0.1211
vn 0.4265 0.8894 -0.1643
vn -0.8656 0.4923 -0.0912
vn -0.4511 -0.6430 0.6189
vn 0.5429 -0.7668 -0.3424
vn 0.2951 0.8100 -0.5068
vn -0.6392 0.5985 0.4829
vn 0.1001 -0.5406 0.8353
vn 0.1585 -0.8573 -0.4898
vn -0.1310 0.7077 -0.6943
vn -0.1282 0.6947 0.7078
vn 0.6921 -0.4308 0.5792
vn -0.1257 -0.9220 -0.3661
vn -0.6467 0.5805 -0.4948
vn 0.3285 0.7807 0.5316
vn 0.9477 -0.3138 -0.0583
vn -0.1991 -0.9637 -0.1777
vn -0.8971 0.4345 0.0805
vn 0.4976 0.8531 0.1569
vn 0.6681 -0.1925 -0.7187
vn -0.1650 -0.9821 -0.0903
vn -0.6444 0.2705 0.7152
vn 0.3834 0.9118 -0.1468
vn -0.0127 -0.0682 -0.9976
vn -0.1800 -0.9792 -0.0932
vn 0.0179 0.0969 0.9951
vn 0.1752 0.9537 -0.2446
vn -0.6984 0.0571 -0.7134
vn -0.2879 -0.9569 -0.0396
vn 0.6941 -0.0810 0.7153
vn 0.0530 0.9782 -0.2010
vn -0.9828 0.1815 -0.0338
vn -0.3645 -0.9159 0.1683
vn 0.9655 -0.2560 0.0474
vn 0.0385 0.9828 -0.1809
vn -0.7125 0.3036 0.6326
vn -0.2325 -0.8592 0.4558
vn 0.6943 -0.4201 -0.5843
vn 0.0068 0.9660 -0.2586
vn -0.0827 0.4191 0.9041
vn 0.1498 -0.7867 0.5989
vn 0.1120 -0.5720 -0.8125
vn -0.1771 0.9247 -0.3371
vn 0.5213 0.5402 0.6606
vn 0.5906 -0.6955 0.4092
vn -0.4069 -0.6989 -0.5882
vn -0.4524 0.8622 -0.2281
vn 0.7307 0.5580 0.3933
vn 0.7508 -0.6274 0.2066
vn -0.5742 -0.7361 -0.3584
vn -0.5819 0.8060 -0.1079
vt 1.000000 0.000000
vt 0.333333 0.000000
vt 0.666667 0.000000
vt 0.000000 0.000000
vt 0.000000 1.000000
vt 0.012500 1.000000
vt 0.012500 0.750000
vt 0.000000 0.750000
vt 0.000000 0.250000
vt 0.012500 0.250000
vt 0.012500 0.000000
vt 0.000000 0.500000
vt 0.012500 0.500000
vt 0.025000 1.000000
vt 0.025000 0.750000
vt 0.025000 0.250000
vt 0.025000 0.000000
vt 0.025000 0.500000
vt 0.037500 1.000000
vt 0.037500 0.750000
vt 0.037500 0.250000
vt 0.037500 0.000000
vt 0.037500 0.500000
vt 0.050000 1.000000
vt 0.050000 0.750000
vt 0.050000 0.250000
vt 0.050000 0.000000
vt 0.050000 0.500000
vt 0.062500 1.000000
vt 0.062500 0.750000
vt 0.062500 0.250000
vt 0.062500 0.000000
vt 0.062500 0.500000
vt 0.075000 1.000000
vt 0.075000 0.750000
vt 0.075000 0.250000
vt 0.075000 0.000000
vt 0.075000 0.500000
vt 0.087500 1.000000
vt 0.087500 0.750000
vt 0.087500 0.250000
vt 0.087500 0.000000
vt 0.087500 0.500000
vt 0.100000 1.000000
vt 0.100000 0.750000
vt 0.100000 0.250000
vt 0.100000 0.000000
vt 0.100000 0.500000
vt 0.112500 1.000000
vt 0.112500 0.750000
vt 0.112500 0.250000
vt 0.112500 0.000000
vt 0.112500 0.500000
vt 0.125000 1.000000
vt 0.125000 0.750000
vt 0.125000 0.250000
vt 0.125000 0.000000
vt 0.125000 0.500000
vt 0.137500 1.000000
vt 0.137500 0.750000
vt 0.137500 0.250000
vt 0.137500 0.000000
vt 0.137500 0.500000
vt 0.150000 1.000000
vt 0.150000 0.750000
vt 0.150000 0.250000
vt 0.150000 0.000000
vt 0.150000 0.500000
vt 0.162500 1.000000
vt 0.162500 0.750000
vt 0.162500 0.250000
vt 0.162500 0.000000
vt 0.162500 0.500000
vt 0.175000 1.000000
vt 0.175000 0.750000
vt 0.175000 0.250000
vt 0.175000 0.000000
vt 0.175000 0.500000
vt 0.187500 1.000000
vt 0.187500 0.750000
vt 0.187500 0.250000
vt 0.187500 0.000000
vt 0.187500 0.500000
vt 0.200000 1.000000
vt 0.200000 0.750000
vt 0.200000 0.250000
vt 0.200000 0.000000
vt 0.200000 0.500000
vt 0.212500 1.000000
vt 0.212500 0.750000
vt 0.212500 0.250000
vt 0.212500 0.000000
vt 0.212500 0.500000
vt 0.225000 1.000000
vt 0.225000 0.750000
vt 0.225000 0.250000
vt 0.225000 0.000000
vt 0.225000 0.500000
vt 0.237500 1.000000
vt 0.237500 0.750000
vt 0.237500 0.250000
vt 0.237500 0.000000
vt 0.237500 0.500000
vt 0.250000 1.000000
vt 0.250000 0.750000
vt 0.250000 0.250000
vt 0.250000 0.000000
vt 0.250000 0.500000
vt 0.262500 1.000000
vt 0.262500 0.750000
vt 0.262500 0.250000
vt 0.262500 0.000000
vt 0.262500 0.500000
vt 0.275000 1.000000
vt 0.275000 0.750000
vt 0.275000 0.250000
vt 0.275000 0.000000
vt 0.275000 0.500000
vt 0.287500 1.000000
vt 0.287500 0.750000
vt 0.287500 0.250000
vt 0.287500 0.000000
vt 0.287500 0.500000
vt 0.300000 1.000000
vt 0.300000 0.750000
vt 0.300000 0.250000
vt 0.300000 0.000000
vt 0.300000 0.500000
vt 0.312500 1.000000
vt 0.312500 0.750000
vt 0.312500 0.250000
vt 0.312500 0.000000
vt 0.312500 0.500000
vt 0.325000 1.000000
vt 0.325000 0.750000
vt 0.325000 0.250000
vt 0.325000 0.000000
vt 0.325000 0.500000
vt 0.337500 1.000000
vt 0.337500 0.750000
vt 0.337500 0.250000
vt 0.337500 0.000000
vt 0.337500 0.500000
vt 0.350000 1.000000
vt 0.350000 0.750000
vt 0.350000 0.250000
vt 0.350000 0.000000
vt 0.350000 0.500000
vt 0.362500 1.000000
vt 0.362500 0.750000
vt 0.362500 0.250000
vt 0.362500 0.000000
vt 0.362500 0.500000
vt 0.375000 1.000000
vt 0.375000 0.750000
vt 0.375000 0.250000
vt 0.375000 0.000000
vt 0.375000 0.500000
vt 0.387500 1.000000
vt 0.387500 0.750000
vt 0.387500 0.250000
vt 0.387500 0.000000
vt 0.387500 0.500000
vt 0.400000 1.000000
vt 0.400000 0.750000
vt 0.400000 0.250000
vt 0.400000 0.000000
vt 0.400000 0.500000
vt 0.412500 1.000000
vt 0.412500 0.750000
vt 0.412500 0.250000
vt 0.412500 0.000000
vt 0.412500 0.500000
vt 0.425000 1.000000
vt 0.425000 0.750000
vt 0.425000 0.250000
vt 0.425000 0.000000
vt 0.425000 0.500000
vt 0.437500 1.000000
vt 0.437500 0.750000
vt 0.437500 0.250000
vt 0.437500 0.000000
vt 0.437500 0.500000
vt 0.450000 1.000000
vt 0.450000 0.750000
vt 0.450000 0.250000
vt 0.450000 0.000000
vt 0.450000 0.500000
vt 0.462500 1.000000
vt 0.462500 0.750000
vt 0.462500 0.250000
vt 0.462500 0.000000
vt 0.462500 0.500000
vt 0.475000 1.000000
vt 0.475000 0.750000
vt 0.475000 0.250000
vt 0.475000 0.000000
vt 0.475000 0.500000
vt 0.487500 1.000000
vt 0.487500 0.750000
vt 0.487500 0.250000
vt 0.487500 0.000000
vt 0.487500 0.500000
vt 0.500000 1.000000
vt 0.500000 0.750000
vt 0.500000 0.250000
vt 0.500000 0.000000
vt 0.500000 0.500000
vt 0.512500 1.000000
vt 0.512500 0.750000
vt 0.512500 0.250000
vt 0.512500 0.000000
vt 0.512500 0.500000
vt 0.525000 1.000000
vt 0.525000 0.750000
vt 0.525000 0.250000
vt 0.525000 0.000000
vt 0.525000 0.500000
vt 0.537500 1.000000
vt 0.537500 0.750000
vt 0.537500 0.250000
vt 0.537500 0.000000
vt 0.537500 0.500000
vt 0.550000 1.000000
vt 0.550000 0.750000
vt 0.550000 0.250000
vt 0.550000 0.000000
vt 0.550000 0.500000
vt 0.562500 1.000000
vt 0.562500 0.750000
vt 0.562500 0.250000
vt 0.562500 0.000000
vt 0.562500 0.500000
vt 0.575000 1.000000
vt 0.575000 0.750000
vt 0.575000 0.250000
vt 0.575000 0.000000
vt 0.575000 0.500000
vt 0.587500 1.000000
vt 0.587500 0.750000
vt 0.587500 0.250000
vt 0.587500 0.000000
vt 0.587500 0.500000
vt 0.600000 1.000000
vt 0.600000 0.750000
vt 0.600000 0.250000
vt 0.600000 0.000000
vt 0.600000 0.500000
vt 0.612500 1.000000
vt 0.612500 0.750000
vt 0.612500 0.250000
vt 0.612500 0.000000
vt 0.612500 0.500000
vt 0.625000 1.000000
vt 0.625000 0.750000
vt 0.625000 0.250000
vt 0.625000 0.000000
vt 0.625000 0.500000
vt 0.637500 1.000000
vt 0.637500 0.750000
vt 0.637500 0.250000
vt 0.637500 0.000000
vt 0.637500 0.500000
vt 0.650000 1.000000
vt 0.650000 0.750000
vt 0.650000 0.250000
vt 0.650000 0.000000
vt 0.650000 0.500000
vt 0.662500 1.000000
vt 0.662500 0.750000
vt 0.662500 0.250000
vt 0.662500 0.000000
vt 0.662500 0.500000
vt 0.675000 1.000000
vt 0.675000 0.750000
vt 0.675000 0.250000
vt 0.675000 0.000000
vt 0.675000 0.500000
vt 0.687500 1.000000
vt 0.687500 0.750000
vt 0.687500 0.250000
vt 0.687500 0.000000
vt 0.687500 0.500000
vt 0.700000 1.000000
vt 0.700000 0.750000
vt 0.700000 0.250000
vt 0.700000 0.000000
vt 0.700000 0.500000
vt 0.712500 1.000000
vt 0.712500 0.750000
vt 0.712500 0.250000
vt 0.712500 0.000000
vt 0.712500 0.500000
vt 0.725000 1.000000
vt 0.725000 0.750000
vt 0.725000 0.250000
vt 0.725000 0.000000
vt 0.725000 0.500000
vt 0.737500 1.000000
vt 0.737500 0.750000
vt 0.737500 0.250000
vt 0.737500 0.000000
vt 0.737500 0.500000
vt 0.750000 1.000000
vt 0.750000 0.750000
vt 0.750000 0.250000
vt 0.750000 0.000000
vt 0.750000 0.500000
vt 0.762500 1.000000
vt 0.762500 0.750000
vt 0.762500 0.250000
vt 0.762500 0.000000
vt 0.762500 0.500000
vt 0.775000 1.000000
vt 0.775000 0.750000
vt 0.775000 0.250000
vt 0.775000 0.000000
vt 0.775000 0.500000
vt 0.787500 1.000000
vt 0.787500 0.750000
vt 0.787500 0.250000
vt 0.787500 0.000000
vt 0.787500 0.500000
vt 0.800000 1.000000
vt 0.800000 0.750000
vt 0.800000 0.250000
vt 0.800000 0.000000
vt 0.800000 0.500000
vt 0.812500 1.000000
vt 0.812500 0.750000
vt 0.812500 0.250000
vt 0.812500 0.000000
vt 0.812500 0.500000
vt 0.825000 1.000000
vt 0.825000 0.750000
vt 0.825000 0.250000
vt 0.825000 0.000000
vt 0.825000 0.500000
vt 0.837500 1.000000
vt 0.837500 0.750000
vt 0.837500 0.250000
vt 0.837500 0.000000
vt 0.837500 0.500000
vt 0.850000 1.000000
vt 0.850000 0.750000
vt 0.850000 0.250000
vt 0.850000 0.000000
vt 0.850000 0.500000
vt 0.862500 1.000000
vt 0.862500 0.750000
vt 0.862500 0.250000
vt 0.862500 0.000000
vt 0.862500 0.500000
vt 0.875000 1.000000
vt 0.875000 0.750000
vt 0.875000 0.250000
vt 0.875000 0.000000
vt 0.875000 0.500000
vt 0.887500 1.000000
vt 0.887500 0.750000
vt 0.887500 0.250000
vt 0.887500 0.000000
vt 0.887500 0.500000
vt 0.900000 1.000000
vt 0.900000 0.750000
vt 0.900000 0.250000
vt 0.900000 0.000000
vt 0.900000 0.500000
vt 0.912500 1.000000
vt 0.912500 0.750000
vt 0.912500 0.250000
vt 0.912500 0.000000
vt 0.912500 0.500000
vt 0.925000 1.000000
vt 0.925000 0.750000
vt 0.925000 0.250000
vt 0.925000 0.000000
vt 0.925000 0.500000
vt 0.937500 1.000000
vt 0.937500 0.750000
vt 0.937500 0.250000
vt 0.937500 0.000000
vt 0.937500 0.500000
vt 0.950000 1.000000
vt 0.950000 0.750000
vt 0.950000 0.250000
vt 0.950000 0.000000
vt 0.950000 0.500000
vt 0.962500 1.000000
vt 0.962500 0.750000
vt 0.962500 0.250000
vt 0.962500 0.000000
vt 0.962500 0.500000
vt 0.975000 1.000000
vt 0.975000 0.750000
vt 0.975000 0.250000
vt 0.975000 0.000000
vt 0.975000 0.500000
vt 0.987500 1.000000
vt 0.987500 0.750000
vt 0.987500 0.250000
vt 0.987500 0.000000
vt 0.987500 0.500000
vt 1.000000 1.000000
vt 1.000000 0.750000
vt 1.000000 0.250000
vt 1.000000 0.500000
s 1
f 4/1/1 2/2/1 3/3/1
f 4/1/1 1/4/1 2/2/1
f 6/2/2 8/1/2 7/3/2
f 6/2/2 5/4/2 8/1/2
f 9/5/3 13/6/7 16/7/10 12/8/6
f 10/9/4 14/10/8 13/11/7 9/4/3
f 11/12/5 15/13/9 14/10/8 10/9/4
f 12/8/6 16/7/10 15/13/9 11/12/5
f 13/6/7 17/14/11 20/15/14 16/7/10
f 14/10/8 18/16/12 17/17/11 13/11/7
f 15/13/9 19/18/13 18/16/12 14/10/8
f 16/7/10 20/15/14 19/18/13 15/13/9
f 17/14/11 21/19/15 24/20/18 20/15/14
f 18/16/12 22/21/16 21/22/15 17/17/11
f 19/18/13 23/23/17 22/21/16 18/16/12
f 20/15/14 24/20/18 23/23/17 19/18/13
f 21/19/15 25/24/19 28/25/22 24/20/18
f 22/21/16 26/26/20 25/27/19 21/22/15
f 23/23/17 27/28/21 26/26/20 22/21/16
f 24/20/18 28/25/22 27/28/21 23/23/17
f 25/24/19 29/29/23 32/30/26 28/25/22
f 26/26/20 30/31/24 29/32/23 25/27/19
f 27/28/21 31/33/25 30/31/24 26/26/20
f 28/25/22 32/30/26 31/33/25 27/28/21
f 29/29/23 33/34/27 36/35/30 32/30/26
f 30/31/24 34/36/28 33/37/27 29/32/23
f 31/33/25 35/38/29 34/36/28 30/31/24
f 32/30/26 36/35/30 35/38/29 31/33/25
f 33/34/27 37/39/31 40/40/34 36/35/30
f 34/36/28 38/41/32 37/42/31 33/37/27
f 35/38/29 39/43/33 38/41/32 34/36/28
f 36/35/30 40/40/34 39/43/33 35/38/29
f 37/39/31 41/44/35 44/45/38 40/40/34
f 38/41/32 42/46/36 41/47/35 37/42/31
f 39/43/33 43/48/37 42/46/36 38/41/32
f 40/40/34 44/45/38 43/48/37 39/43/33
f 41/44/35 45/49/39 48/50/42 44/45/38
f 42/46/36 46/51/40 45/52/39 41/47/35
f 43/48/37 47/53/41 46/51/40 42/46/36
f 44/45/38 48/50/42 47/53/41 43/48/37
f 45/49/39 49/54/43 52/55/46 48/50/42
f 46/51/40 50/56/44 49/57/43 45/52/39
f 47/53/41 51/58/45 50/56/44 46/51/40
f 48/50/42 52/55/46 51/58/45 47/53/41
f 49/54/43 53/59/47 56/60/50 52/55/46
f 50/56/44 54/61/48 53/62/47 49/57/43
f 51/58/45 55/63/49 54/61/48 50/56/44
f 52/55/46 56/60/50 55/63/49 51/58/45
f 53/59/47 57/64/51 60/65/54 56/60/50
f 54/61/48 58/66/52 57/67/51 53/62/47
f 55/63/49 59/68/53 58/66/52 54/61/48
f 56/60/50 60/65/54 59/68/53 55/63/49
f 57/64/51 61/69/55 64/70/58 60/65/54
f 58/66/52 62/71/56 61/72/55 57/67/51
f 59/68/53 63/73/57 62/71/56 58/66/52
f 60/65/54 64/70/58 63/73/57 59/68/53
f 61/69/55 65/74/59 68/75/62 64/70/58
f 62/71/56 66/76/60 65/77/59 61/72/55
f 63/73/57 67/78/61 66/76/60 62/71/56
f 64/70/58 68/75/62 67/78/61 63/73/57
f 65/74/59 69/79/63 72/80/66 68/75/62
f 66/76/60 70/81/64 69/82/63 65/77/59
f 67/78/61 71/83/65 70/81/64 66/76/60
f 68/75/62 72/80/66 71/83/65 67/78/61
f 69/79/63 73/84/67 76/85/70 72/80/66
f 70/81/64 74/86/68 73/87/67 69/82/63
f 71/83/65 75/88/69 74/86/68 70/81/64
f 72/80/66 76/85/70 75/88/69 71/83/65
f 73/84/67 77/89/71 80/90/74 76/85/70
f 74/86/68 78/91/72 77/92/71 73/87/67
f 75/88/69 79/93/73 78/91/72 74/86/68
f 76/85/70 80/90/74 79/93/73 75/88/69
f 77/89/71 81/94/75 84/95/78 80/90/74
f 78/91/72 82/96/76 81/97/75 77/92/71
f 79/93/73 83/98/77 82/96/76 78/91/72
f 80/90/74 84/95/78 83/98/77 79/93/73
f 81/94/75 85/99/79 88/100/82 84/95/78
f 82/96/76 86/101/80 85/102/79 81/97/75
f 83/98/77 87/103/81 86/101/80 82/96/76
f 84/95/78 88/100/82 87/103/81 83/98/77
f 85/99/79 89/104/83 92/105/86 88/100/82
f 86/101/80 90/106/84 89/107/83 85/102/79
f 87/103/81 91/108/85 90/106/84 86/101/80
f 88/100/82 92/105/86 91/108/85 87/103/81
f 89/104/83 93/109/87 96/110/90 92/105/86
f 90/106/84 94/111/88 93/112/87 89/107/83
f 91/108/85 95/113/89 94/111/88 90/106/84
f 92/105/86 96/110/90 95/113/89 91/108/85
f 93/109/87 97/114/91 100/115/94 96/110/90
f 94/111/88 98/116/92 97/117/91 93/112/87
f 95/113/89 99/118/93 98/116/92 94/111/88
f 96/110/90 100/115/94 99/118/93 95/113/89
f 97/114/91 101/119/95 104/120/98 100/115/94
f 98/116/92 102/121/96 101/122/95 97/117/91
f 99/118/93 103/123/97 102/121/96 98/116/92
f 100/115/94 104/120/98 103/123/97 99/118/93
f 101/119/95 105/124/99 108/125/102 104/120/98
f 102/121/96 106/126/100 105/127/99 101/122/95
f 103/123/97 107/128/101 106/126/100 102/121/96
f 104/120/98 108/125/102 107/128/101 103/123/97
f 105/124/99 109/129/103 112/130/106 108/125/102
f 106/126/100 110/131/104 109/132/103 105/127/99
f 107/128/101 111/133/105 110/131/104 106/126/100
f 108/125/102 112/130/106 111/133/105 107/128/101
f 109/129/103 113/134/107 116/135/110 112/130/106
f 110/131/104 114/136/108 113/137/107 109/132/103
f 111/133/105 115/138/109 114/136/108 110/131/104
f 112/130/106 116/135/110 115/138/109 111/133/105
f 113/134/107 117/139/111 120/140/114 116/135/110
f 114/136/108 118/141/112 117/142/111 113/137/107
f 115/138/109 119/143/113 118/141/112 114/136/108
f 116/135/110 120/140/114 119/143/113 115/138/109
f 117/139/111 121/144/115 124/145/118 120/140/114
f 118/141/112 122/146/116 121/147/115 117/142/111
f 119/143/113 123/148/117 122/146/116 118/141/112
f 120/140/114 124/145/118 123/148/117 119/143/113
f 121/144/115 125/149/119 128/150/122 124/145/118
f 122/146/116 126/151/120 125/152/119 121/147/115
f 123/148/117 127/153/121 126/151/120 122/146/116
f 124/145/118 128/150/122 127/153/121 123/148/117
f 125/149/119 129/154/123 132/155/126 128/150/122
f 126/151/120 130/156/124 129/157/123 125/152/119
f 127/153/121 131/158/125 130/156/124 126/151/120
f 128/150/122 132/155/126 131/158/125 127/153/121
f 129/154/123 133/159/127 136/160/130 132/155/126
f 130/156/124 134/161/128 133/162/127 129/157/123
f 131/158/125 135/163/129 134/161/128 130/156/124
f 132/155/126 136/160/130 135/163/129 131/158/125
f 133/159/127 137/164/131 140/165/134 136/160/130
f 134/161/128 138/166/132 137/167/131 133/162/127
f 135/163/129 139/168/133 138/166/132 134/161/128
f 136/160/130 140/165/134 139/168/133 135/163/129
f 137/164/131 141/169/135 144/170/138 140/165/134
f 138/166/132 142/171/136 141/172/135 137/167/131
f 139/168/133 143/173/137 142/171/136 138/166/132
f 140/165/134 144/170/138 143/173/137 139/168/133
f 141/169/135 145/174/139 148/175/142 144/170/138
f 142/171/136 146/176/140 145/177/139 141/172/135
f 143/173/137 147/178/141 146/176/140 142/171/136
f 144/170/138 148/175/142 147/178/141 143/173/137
f 145/174/139 149/179/143 152/180/146 148/175/142
f 146/176/140 150/181/144 149/182/143 145/177/139
f 147/178/141 151/183/145 150/181/144 146/176/140
f 148/175/142 152/180/146 151/183/145 147/178/141
f 149/179/143 153/184/147 156/185/150 152/180/146
f 150/181/144 154/186/148 153/187/147 149/182/143
f 151/183/145 155/188/149 154/186/148 150/181/144
f 152/180/146 156/185/150 155/188/149 151/183/145
f 153/184/147 157/189/151 160/190/154 156/185/150
f 154/186/148 158/191/152 157/192/151 153/187/147
f 155/188/149 159/193/153 158/191/152 154/186/148
f 156/185/150 160/190/154 159/193/153 155/188/149
f 157/189/151 161/194/155 164/195/158 160/190/154
f 158/191/152 162/196/156 161/197/155 157/192/151
f 159/193/153 163/198/157 162/196/156 158/191/152
f 160/190/154 164/195/158 163/198/157 159/193/153
f 161/194/155 165/199/159 168/200/162 164/195/158
f 162/196/156 166/201/160 165/202/159 161/197/155
f 163/198/157 167/203/161 166/201/160 162/196/156
f 164/195/158 168/200/162 167/203/161 163/198/157
f 165/199/159 169/204/163 172/205/166 168/200/162
f 166/201/160 170/206/164 169/207/163 165/202/159
f 167/203/161 171/208/165 170/206/164 166/201/160
f 168/200/162 172/205/166 171/208/165 167/203/161
f 169/204/163 173/209/167 176/210/170 172/205/166
f 170/206/164 174/211/168 173/212/167 169/207/163
f 171/208/165 175/213/169 174/211/168 170/206/164
f 172/205/166 176/210/170 175/213/169 171/208/165
f 173/209/167 177/214/171 180/215/174 176/210/170
f 174/211/168 178/216/172 177/217/171 173/212/167
f 175/213/169 179/218/173 178/216/172 174/211/168
f 176/210/170 180/215/174 179/218/173 175/213/169
f 177/214/171 181/219/175 184/220/178 180/215/174
f 178/216/172 182/221/176 181/222/175 177/217/171
f 179/218/173 183/223/177 182/221/176 178/216/172
f 180/215/174 184/220/178 183/223/177 179/218/173
f 181/219/175 185/224/179 188/225/182 184/220/178
f 182/221/176 186/226/180 185/227/179 181/222/175
f 183/223/177 187/228/181 186/226/180 182/221/176
f 184/220/178 188/225/182 187/228/181 183/223/177
f 185/224/179 189/229/183 192/230/186 188/225/182
f 186/226/180 190/231/184 189/232/183 185/227/179
f 187/228/181 191/233/185 190/231/184 186/226/180
f 188/225/182 192/230/186 191/233/185 187/228/181
f 189/229/183 193/234/187 196/235/190 192/230/186
f 190/231/184 194/236/188 193/237/187 189/232/183
f 191/233/185 195/238/189 194/236/188 190/231/184
f 192/230/186 196/235/190 195/238/189 191/233/185
f 193/234/187 197/239/191 200/240/194 196/235/190
f 194/236/188 198/241/192 197/242/191 193/237/187
f 195/238/189 199/243/193 198/241/192 194/236/188
f 196/235/190 200/240/194 199/243/193 195/238/189
f 197/239/191 201/244/195 204/245/198 200/240/194
f 198/241/192 202/246/196 201/247/195 197/242/191
f 199/243/193 203/248/197 202/246/196 198/241/192
f 200/240/194 204/245/198 203/248/197 199/243/193
f 201/244/195 205/249/199 208/250/202 204/245/198
f 202/246/196 206/251/200 205/252/199 201/247/195
f 203/248/197 207/253/201 206/251/200 202/246/196
f 204/245/198 208/250/202 207/253/201 203/248/197
f 205/249/199 209/254/203 212/255/206 208/250/202
f 206/251/200 210/256/204 209/257/203 205/252/199
f 207/253/201 211/258/205 210/256/204 206/251/200
f 208/250/202 212/255/206 211/258/205 207/253/201
f 209/254/203 213/259/207 216/260/210 212/255/206
f 210/256/204 214/261/208 213/262/207 209/257/203
f 211/258/205 215/263/209 214/261/208 210/256/204
f 212/255/206 216/260/210 215/263/209 211/258/205
f 213/259/207 217/264/211 220/265/214 216/260/210
f 214/261/208 218/266/212 217/267/211 213/262/207
f 215/263/209 219/268/213 218/266/212 214/261/208
f 216/260/210 220/265/214 219/268/213 215/263/209
f 217/264/211 221/269/215 224/270/218 220/265/214
f 218/266/212 222/271/216 221/272/215 217/267/211
f 219/268/213 223/273/217 222/271/216 218/266/212
f 220/265/214 224/270/218 223/273/217 219/268/213
f 221/269/215 225/274/219 228/275/222 224/270/218
f 222/271/216 226/276/220 225/277/219 221/272/215
f 223/273/217 227/278/221 226/276/220 222/271/216
f 224/270/218 228/275/222 227/278/221 223/273/217
f 225/274/219 229/279/223 232/280/226 228/275/222
f 226/276/220 230/281/224 229/282/223 225/277/219
f 227/278/221 231/283/225 230/281/224 226/276/220
f 228/275/222 232/280/226 231/283/225 227/278/221
f 229/279/223 233/284/227 236/285/230 232/280/226
f 230/281/224 234/286/228 233/287/227 229/282/223
f 231/283/225 235/288/229 234/286/228 230/281/224
f 232/280/226 236/285/230 235/288/229 231/283/225
f 233/284/227 237/289/231 240/290/234 236/285/230
f 234/286/228 238/291/232 237/292/231 233/287/227
f 235/288/229 239/293/233 238/291/232 234/286/228
f 236/285/230 240/290/234 239/293/233 235/288/229
f 237/289/231 241/294/235 244/295/238 240/290/234
f 238/291/232 242/296/236 241/297/235 237/292/231
f 239/293/233 243/298/237 242/296/236 238/291/232
f 240/290/234 244/295/238 243/298/237 239/293/233
f 241/294/235 245/299/239 248/300/242 244/295/238
f 242/296/236 246/301/240 245/302/239 241/297/235
f 243/298/237 247/303/241 246/301/240 242/296/236
f 244/295/238 248/300/242 247/303/241 243/298/237
f 245/299/239 249/304/243 252/305/246 248/300/242
f 246/301/240 250/306/244 249/307/243 245/302/239
f 247/303/241 251/308/245 250/306/244 246/301/240
f 248/300/242 252/305/246 251/308/245 247/303/241
f 249/304/243 253/309/247 256/310/250 252/305/246
f 250/306/244 254/311/248 253/312/247 249/307/243
f 251/308/245 255/313/249 254/311/248 250/306/244
f 252/305/246 256/310/250 255/313/249 251/308/245
f 253/309/247 257/314/251 260/315/254 256/310/250
f 254/311/248 258/316/252 257/317/251 253/312/247
f 255/313/249 259/318/253 258/316/252 254/311/248
f 256/310/250 260/315/254 259/318/253 255/313/249
f 257/314/251 261/319/255 264/320/258 260/315/254
f 258/316/252 262/321/256 261/322/255 257/317/251
f 259/318/253 263/323/257 262/321/256 258/316/252
f 260/315/254 264/320/258 263/323/257 259/318/253
f 261/319/255 265/324/259 268/325/262 264/320/258
f 262/321/256 266/326/260 265/327/259 261/322/255
f 263/323/257 267/328/261 266/326/260 262/321/256
f 264/320/258 268/325/262 267/328/261 263/323/257
f 265/324/259 269/329/263 272/330/266 268/325/262
f 266/326/260 270/331/264 269/332/263 265/327/259
f 267/328/261 271/333/265 270/331/264 266/326/260
f 268/325/262 272/330/266 271/333/265 267/328/261
f 269/329/263 273/334/267 276/335/270 272/330/266
f 270/331/264 274/336/268 273/337/267 269/332/263
f 271/333/265 275/338/269 274/336/268 270/331/264
f 272/330/266 276/335/270 275/338/269 271/333/265
f 273/334/267 277/339/271 280/340/274 276/335/270
f 274/336/268 278/341/272 277/342/271 273/337/267
f 275/338/269 279/343/273 278/341/272 274/336/268
f 276/335/270 280/340/274 279/343/273 275/338/269
f 277/339/271 281/344/275 284/345/278 280/340/274
f 278/341/272 282/346/276 281/347/275 277/342/271
f 279/343/273 283/348/277 282/346/276 278/341/272
f 280/340/274 284/345/278 283/348/277 279/343/273
f 281/344/275 285/349/279 288/350/282 284/345/278
f 282/346/276 286/351/280 285/352/279 281/347/275
f 283/348/277 287/353/281 286/351/280 282/346/276
f 284/345/278 288/350/282 287/353/281 283/348/277
f 285/349/279 289/354/283 292/355/286 288/350/282
f 286/351/280 290/356/284 289/357/283 285/352/279
f 287/353/281 291/358/285 290/356/284 286/351/280
f 288/350/282 292/355/286 291/358/285 287/353/281
f 289/354/283 293/359/287 296/360/290 292/355/286
f 290/356/284 294/361/288 293/362/287 289/357/283
f 291/358/285 295/363/289 294/361/288 290/356/284
f 292/355/286 296/360/290 295/363/289 291/358/285
f 293/359/287 297/364/291 300/365/294 296/360/290
f 294/361/288 298/366/292 297/367/291 293/362/287
f 295/363/289 299/368/293 298/366/292 294/361/288
f 296/360/290 300/365/294 299/368/293 295/363/289
f 297/364/291 301/369/295 304/370/298 300/365/294
f 298/366/292 302/371/296 301/372/295 297/367/291
f 299/368/293 303/373/297 302/371/296 298/366/292
f 300/365/294 304/370/298 303/373/297 299/368/293
f 301/369/295 305/374/299 308/375/302 304/370/298
f 302/371/296 306/376/300 305/377/299 301/372/295
f 303/373/297 307/378/301 306/376/300 302/371/296
f 304/370/298 308/375/302 307/378/301 303/373/297
f 305/374/299 309/379/303 312/380/306 308/375/302
f 306/376/300 310/381/304 309/382/303 305/377/299
f 307/378/301 311/383/305 310/381/304 306/376/300
f 308/375/302 312/380/306 311/383/305 307/378/301
f 309/379/303 313/384/307 316/385/310 312/380/306
f 310/381/304 314/386/308 313/387/307 309/382/303
f 311/383/305 315/388/309 314/386/308 310/381/304
f 312/380/306 316/385/310 315/388/309 311/383/305
f 313/384/307 317/389/311 320/390/314 316/385/310
f 314/386/308 318/391/312 317/392/311 313/387/307
f 315/388/309 319/393/313 318/391/312 314/386/308
f 316/385/310 320/390/314 319/393/313 315/388/309
f 317/389/311 321/394/315 324/395/318 320/390/314
f 318/391/312 322/396/316 321/397/315 317/392/311
f 319/393/313 323/398/317 322/396/316 318/391/312
f 320/390/314 324/395/318 323/398/317 319/393/313
f 321/394/315 325/399/319 328/400/322 324/395/318
f 322/396/316 326/401/320 325/402/319 321/397/315
f 323/398/317 327/403/321 326/401/320 322/396/316
f 324/395/318 328/400/322 327/403/321 323/398/317
f 325/399/319 329/404/323 332/405/326 328/400/322
f 326/401/320 330/406/324 329/1/323 325/402/319
f 327/403/321 331/407/325 330/406/324 326/401/320
f 328/400/322 332/405/326 331/407/325 327/403/321
o Spring
v 0.113980 1.039810 0.001945
v 0.114302 1.011814 -0.002066
v 0.086020 1.011472 -0.001945
v 0.085698 1.039469 0.002066
v 0.099983 0.019798 0.002835
v 0.120000 -0.000000 0.000120
v 0.100017 -0.019798 -0.002835
v 0.080000 0.000000 -0.000120
v 0.099983 0.019798 0.002835
v 0.120000 -0.000000 0.000120
v 0.100017 -0.019798 -0.002835
v 0.080000 0.000000 -0.000120
v 0.071369 0.031155 -0.066448
v 0.085116 0.014269 -0.084499
v 0.070138 -0.007854 -0.075211
v 0.056391 0.009033 -0.057160
v 0.003588 0.044499 -0.094388
v 0.001007 0.031162 -0.119197
v -0.003588 0.006783 -0.105612
v -0.001007 0.020120 -0.080803
v -0.062379 0.056307 -0.066955
v -0.082389 0.046757 -0.084516
v -0.078878 0.020616 -0.074302
v -0.058868 0.030166 -0.056741
v -0.088994 0.067713 -0.002982
v -0.116699 0.062111 -0.001966
v -0.111006 0.034851 0.002982
v -0.083301 0.040453 0.001966
v -0.063073 0.078762 0.059314
v -0.082847 0.077231 0.079480
v -0.078184 0.049443 0.081943
v -0.058410 0.050974 0.061777
v -0.002282 0.089492 0.084611
v -0.002748 0.092064 0.112774
v 0.002282 0.064354 0.115389
v 0.002748 0.061782 0.087226
v 0.057228 0.099950 0.059845
v 0.075806 0.106569 0.080120
v 0.084029 0.079538 0.081412
v 0.065451 0.072918 0.061137
v 0.081560 0.110184 0.001383
v 0.107745 0.120707 0.003293
v 0.118440 0.094944 -0.001383
v 0.092255 0.084421 -0.003293
v 0.057550 0.120254 -0.056302
v 0.076572 0.134452 -0.071683
v 0.083707 0.110516 -0.084955
v 0.064685 0.096317 -0.069574
v 0.000365 0.130217 -0.080105
v 0.003553 0.147780 -0.102045
v -0.000365 0.126193 -0.119895
v -0.003553 0.108630 -0.097955
v -0.056615 0.140137 -0.056387
v -0.067469 0.160685 -0.072510
v -0.084642 0.141915 -0.084870
v -0.073788 0.121367 -0.068747
v -0.080371 0.150076 0.000684
v -0.096168 0.173160 -0.003506
v -0.119629 0.157617 -0.000684
v -0.103832 0.134532 0.003506
v -0.056455 0.160096 0.058140
v -0.068285 0.185217 0.063529
v -0.084801 0.173237 0.083117
v -0.072972 0.148117 0.077728
v 0.001675 0.170260 0.082335
v -0.003155 0.196868 0.090623
v -0.001675 0.188714 0.117665
v 0.003155 0.162106 0.109377
v 0.060746 0.180625 0.057750
v 0.060202 0.208144 0.064263
v 0.080511 0.203991 0.083507
v 0.081055 0.176472 0.076994
v 0.085827 0.191244 -0.002520
v 0.085889 0.219073 0.002531
v 0.114173 0.219013 0.002520
v 0.114111 0.191183 -0.002531
v 0.060160 0.202164 -0.064207
v 0.060791 0.229700 -0.057778
v 0.081097 0.233734 -0.077050
v 0.080466 0.206197 -0.083479
v -0.003148 0.213428 -0.090546
v 0.001689 0.240071 -0.082376
v 0.003148 0.248110 -0.109454
v -0.001689 0.221467 -0.117624
v -0.068224 0.225068 -0.063475
v -0.056466 0.250240 -0.058171
v -0.073033 0.262111 -0.077782
v -0.084791 0.236939 -0.083086
v -0.096083 0.237113 0.003503
v -0.080387 0.260265 -0.000700
v -0.103917 0.275708 -0.003503
v -0.119613 0.252556 0.000700
v -0.067408 0.249576 0.072448
v -0.056629 0.270205 0.056379
v -0.073849 0.288886 0.068809
v -0.084628 0.268256 0.084878
v 0.003555 0.262467 0.101958
v 0.000350 0.280124 0.080096
v -0.003555 0.301635 0.098042
v -0.000350 0.283978 0.119904
v 0.076515 0.275784 0.071621
v 0.057525 0.290086 0.056297
v 0.064742 0.313960 0.069636
v 0.083732 0.299658 0.084960
v 0.107665 0.289516 -0.003299
v 0.081527 0.300151 -0.001369
v 0.092335 0.325868 0.003299
v 0.118473 0.315234 0.001369
v 0.075747 0.303643 -0.080073
v 0.057206 0.310380 -0.059804
v 0.065509 0.337383 -0.061184
v 0.084051 0.330646 -0.081453
v -0.002758 0.318138 -0.112708
v -0.002270 0.320830 -0.084556
v 0.002758 0.348529 -0.087292
v 0.002270 0.345837 -0.115444
v -0.082814 0.332962 -0.079431
v -0.063020 0.331551 -0.059276
v -0.058443 0.359346 -0.061826
v -0.078237 0.360757 -0.081981
v -0.116651 0.348074 0.001979
v -0.088921 0.342591 0.002974
v -0.083349 0.369875 -0.001979
v -0.111079 0.375358 -0.002974
v -0.082353 0.363422 0.084500
v -0.062328 0.353986 0.066895
v -0.058904 0.380168 0.056757
v -0.078929 0.389604 0.074362
v 0.001028 0.378953 0.119154
v 0.003421 0.365769 0.094245
v -0.001028 0.390278 0.080846
v -0.003421 0.403462 0.105755
v 0.084986 0.394607 0.084261
v 0.071092 0.377961 0.066099
v 0.056271 0.400265 0.056996
v 0.070165 0.416911 0.075158
v 0.120000 0.410322 0.000012
v 0.100067 0.390578 -0.003572
v 0.080000 0.410191 -0.000012
v 0.099933 0.429935 0.003572
v 0.084989 0.426036 -0.084230
v 0.070261 0.403622 -0.075249
v 0.056268 0.420118 -0.057027
v 0.070996 0.442532 -0.066008
v 0.001051 0.441686 -0.119115
v -0.003414 0.417090 -0.105883
v -0.001051 0.430109 -0.080885
v 0.003414 0.454705 -0.094117
v -0.082298 0.457210 -0.084475
v -0.079007 0.430965 -0.074455
v -0.058959 0.440226 -0.056782
v -0.062250 0.466471 -0.066802
v -0.116577 0.472548 -0.001999
v -0.111190 0.445228 0.002961
v -0.083423 0.450529 0.001999
v -0.088810 0.477849 -0.002961
v -0.082763 0.487648 0.079355
v -0.078318 0.459845 0.082040
v -0.058494 0.461070 0.061902
v -0.062939 0.488873 0.059217
v -0.002773 0.502458 0.112604
v 0.002251 0.474778 0.115529
v 0.002773 0.471901 0.087396
v -0.002251 0.499581 0.084471
v 0.075658 0.516937 0.080000
v 0.084085 0.489980 0.081516
v 0.065599 0.483063 0.061256
v 0.057172 0.510020 0.059741
v 0.107541 0.531047 0.003308
v 0.118524 0.505401 -0.001347
v 0.092459 0.494594 -0.003308
v 0.081476 0.520240 0.001347
v 0.076427 0.544761 -0.071525
v 0.083771 0.520983 -0.084966
v 0.064829 0.506521 -0.069732
v 0.057486 0.530300 -0.056291
v 0.003557 0.558058 -0.101825
v -0.000326 0.536666 -0.119917
v -0.003557 0.518865 -0.098175
v 0.000326 0.540257 -0.080083
v -0.067315 0.570930 -0.072353
v -0.084606 0.552388 -0.084890
v -0.073942 0.531634 -0.068904
v -0.056650 0.550176 -0.056367
v -0.095952 0.583374 -0.003498
v -0.119586 0.568086 -0.000723
v -0.104048 0.544832 0.003498
v -0.080414 0.560119 0.000723
v -0.068129 0.595399 0.063391
v -0.084775 0.583698 0.083038
v -0.073128 0.558447 0.077866
v -0.056482 0.570149 0.058219
v -0.003136 0.607022 0.090428
v -0.001710 0.599161 0.117561
v 0.003136 0.572465 0.109572
v 0.001710 0.580326 0.082439
v 0.060094 0.618270 0.064121
v 0.080395 0.614421 0.083436
v 0.081163 0.586858 0.077136
v 0.060862 0.590707 0.057821
v 0.085733 0.629176 0.002503
v 0.114016 0.629422 0.002548
v 0.114267 0.601594 -0.002503
v 0.085984 0.601347 -0.002548
v 0.060677 0.639782 -0.057708
v 0.080988 0.644119 -0.076908
v 0.080580 0.616628 -0.083549
v 0.060269 0.612292 -0.064349
v 0.001654 0.650136 -0.082272
v 0.003166 0.658468 -0.109259
v -0.001654 0.631915 -0.117728
v -0.003166 0.623583 -0.090741
v -0.056440 0.660292 -0.058093
v -0.072877 0.672440 -0.077645
v -0.084817 0.647400 -0.083164
v -0.068380 0.635253 -0.063612
v -0.080345 0.670308 -0.000661
v -0.103701 0.686005 -0.003510
v -0.119655 0.663025 0.000661
v -0.096299 0.647328 0.003510
v -0.056594 0.680245 0.056400
v -0.073694 0.699152 0.068652
v -0.084663 0.678730 0.084857
v -0.067563 0.659823 0.072605
v 0.000389 0.690165 0.080119
v -0.003551 0.711869 0.097822
v -0.000389 0.694450 0.119881
v 0.003551 0.672746 0.102178
v 0.057590 0.700132 0.056309
v 0.064598 0.724162 0.069478
v 0.083667 0.710125 0.084948
v 0.076659 0.686094 0.071779
v 0.081613 0.710207 -0.001405
v 0.092132 0.736041 0.003284
v 0.118387 0.725690 0.001405
v 0.107868 0.699857 -0.003284
v 0.057263 0.720451 -0.059909
v 0.065362 0.747526 -0.061065
v 0.083994 0.741088 -0.081348
v 0.075895 0.714012 -0.080192
v -0.002300 0.730920 -0.084697
v 0.002733 0.758647 -0.087123
v 0.002300 0.756260 -0.115303
v -0.002733 0.728533 -0.112877
v -0.063155 0.741663 -0.059374
v -0.058360 0.769440 -0.061701
v -0.078102 0.771158 -0.081883
v -0.082897 0.743380 -0.079556
v -0.089106 0.752728 0.002996
v -0.083228 0.779950 -0.001946
v -0.110894 0.785733 -0.002996
v -0.116772 0.758512 0.001946
v -0.062458 0.764151 0.067048
v -0.058813 0.790227 0.056716
v -0.078799 0.799952 0.074209
v -0.082444 0.773875 0.084541
v 0.003432 0.775964 0.094457
v -0.000990 0.800326 0.080784
v -0.003432 0.813779 0.105543
v 0.000990 0.789418 0.119216
v 0.071250 0.788188 0.066249
v 0.056277 0.810306 0.056947
v 0.070007 0.827197 0.075008
v 0.084980 0.805078 0.084310
v 0.100287 0.800836 -0.003572
v 0.080002 0.820230 -0.000051
v 0.099713 0.840189 0.003572
v 0.119998 0.820796 0.000051
v 0.070419 0.813912 -0.075399
v 0.056265 0.830160 -0.057078
v 0.070838 0.852755 -0.065858
v 0.084992 0.836507 -0.084179
v -0.003402 0.827411 -0.106093
v -0.001088 0.840159 -0.080951
v 0.003402 0.864897 -0.093907
v 0.001088 0.852149 -0.119049
v -0.079135 0.841316 -0.074607
v -0.059053 0.850287 -0.056825
v -0.062122 0.876632 -0.066650
v -0.082204 0.867661 -0.084432
v -0.111372 0.855607 0.002938
v -0.083548 0.860606 0.002031
v -0.088628 0.887983 -0.002938
v -0.116452 0.882984 -0.002031
v -0.078451 0.870249 0.082135
v -0.058580 0.871167 0.062028
v -0.062806 0.898982 0.059122
v -0.082677 0.898064 0.079229
v 0.002220 0.885204 0.115667
v 0.002798 0.882021 0.087568
v -0.002220 0.909668 0.084333
v -0.002798 0.912851 0.112432
v 0.084139 0.900424 0.081618
v 0.065748 0.893210 0.061377
v 0.057117 0.920089 0.059639
v 0.075509 0.927303 0.079880
v 0.118606 0.915859 -0.001310
v 0.092664 0.904770 -0.003323
v 0.081394 0.930295 0.001310
v 0.107336 0.941384 0.003323
v 0.083835 0.931450 -0.084975
v 0.064975 0.916727 -0.069890
v 0.057422 0.940345 -0.056282
v 0.076282 0.955068 -0.071367
v -0.000287 0.947138 -0.119935
v -0.003560 0.929103 -0.098395
v 0.000287 0.950298 -0.080065
v 0.003560 0.968333 -0.101605
v -0.084569 0.962861 -0.084908
v -0.074096 0.941904 -0.069062
v -0.056688 0.960216 -0.056349
v -0.067161 0.981173 -0.072195
v -0.119540 0.978555 -0.000762
v -0.104264 0.955133 0.003490
v -0.080460 0.970163 0.000762
v -0.095736 0.993585 -0.003490
v -0.084746 0.994157 0.082957
v -0.073284 0.968779 0.078002
v -0.056511 0.980202 0.058300
v -0.067973 1.005580 0.063255
v -0.001864 1.009641 0.117424
v 0.003227 0.982878 0.109819
v 0.001864 0.990359 0.082576
v -0.003227 1.017122 0.090181
v 0.080344 1.026121 0.083513
v 0.081462 0.998495 0.077552
v 0.061163 1.001860 0.058146
v 0.060044 1.029486 0.064107
v 0.113980 1.039810 0.001945
v 0.114302 1.011814 -0.002066
v 0.086020 1.011472 -0.001945
v 0.085698 1.039469 0.002066
vn -0.0059 0.1417 -0.9899
vn -0.0059 -0.1417 0.9899
vn 0.1691 0.9813 0.0920
vn 0.9261 0.0502 -0.3739
vn 0.1740 -0.9577 -0.2293
vn -0.9260 -0.0675 0.3715
vn 0.1578 0.9827 0.0969
vn 0.7177 0.1074 -0.6881
vn 0.0838 -0.9414 -0.3267
vn -0.7191 -0.1686 0.6742
vn 0.1877 0.9761 0.1100
vn 0.0451 0.2426 -0.9691
vn -0.1711 -0.8887 -0.4253
vn -0.0620 -0.3317 0.9414
vn 0.3075 0.9497 0.0598
vn -0.6101 0.3616 -0.7050
vn -0.4914 -0.8259 -0.2765
vn 0.5461 -0.4950 0.6758
vn 0.4050 0.8991 -0.1661
vn -0.8751 0.4758 -0.0882
vn -0.6502 -0.7472 0.1377
vn 0.7635 -0.6351 0.1176
vn 0.2791 0.8233 -0.4942
vn -0.6455 0.5833 0.4931
vn -0.4402 -0.6574 0.6116
vn 0.5544 -0.7513 -0.3580
vn -0.1341 0.7246 -0.6760
vn -0.1257 0.6809 0.7215
vn 0.1030 -0.5564 0.8245
vn 0.1563 -0.8455 -0.5107
vn -0.6384 0.6008 -0.4812
vn 0.3411 0.7687 0.5411
vn 0.6882 -0.4477 0.5709
vn -0.1421 -0.9138 -0.3805
vn -0.8851 0.4576 0.0847
vn 0.5149 0.8431 0.1550
vn 0.9414 -0.3315 -0.0616
vn -0.2212 -0.9591 -0.1768
vn -0.6357 0.2957 0.7130
vn 0.3958 0.9041 -0.1611
vn 0.6629 -0.2109 -0.7184
vn -0.1804 -0.9808 -0.0747
vn 0.0228 0.1234 0.9921
vn 0.1742 0.9485 -0.2647
vn -0.0162 -0.0868 -0.9961
vn -0.1804 -0.9810 -0.0718
vn 0.6989 -0.0545 0.7131
vn 0.0377 0.9757 -0.2156
vn -0.7015 0.0384 -0.7116
vn -0.2740 -0.9614 -0.0245
vn 0.9722 -0.2303 0.0426
vn 0.0167 0.9834 -0.1809
vn -0.9862 0.1630 -0.0303
vn -0.3453 -0.9230 0.1696
vn 0.6990 -0.3961 -0.5954
vn -0.0095 0.9700 -0.2430
vn -0.7141 0.2854 0.6392
vn -0.2187 -0.8688 0.4443
vn 0.1015 -0.5482 -0.8302
vn -0.1725 0.9345 -0.3115
vn -0.0748 0.4032 0.9121
vn 0.1470 -0.7988 0.5833
vn -0.4229 -0.6788 -0.6004
vn -0.4377 0.8744 -0.2094
vn 0.5347 0.5154 0.6696
vn 0.5776 -0.7166 0.3910
vn -0.5976 -0.7884 -0.1459
vn -0.5938 0.7912 0.1464
vn 0.7769 0.6191 0.1144
vn 0.7745 -0.6220 -0.1150
vn -0.4403 -0.8723 0.2126
vn -0.4200 0.6823 0.5984
vn 0.5793 0.7140 -0.3933
vn 0.5329 -0.5186 -0.6686
vn -0.1722 -0.9330 0.3158
vn 0.1023 0.5523 0.8273
vn 0.1466 0.7966 -0.5865
vn -0.0754 -0.4066 -0.9105
vn -0.0063 -0.9692 0.2460
vn 0.6981 0.4008 0.5933
vn -0.2214 0.8669 -0.4465
vn -0.7138 -0.2890 -0.6379
vn 0.0210 -0.9833 0.1809
vn 0.9709 0.2354 -0.0436
vn -0.3491 0.9217 -0.1693
vn -0.9855 -0.1666 0.0310
vn 0.0407 -0.9763 0.2128
vn 0.6980 0.0597 -0.7136
vn -0.2768 0.9605 0.0275
vn -0.7009 -0.0421 0.7120
vn 0.1744 -0.9495 0.2608
vn 0.0219 -0.1182 -0.9928
vn -0.1803 0.9807 0.0760
vn -0.0155 0.0832 0.9964
vn 0.3934 -0.9057 0.1583
vn -0.6374 -0.2908 -0.7135
vn -0.1773 0.9811 0.0778
vn 0.6640 0.2073 0.7184
vn 0.5116 -0.8451 -0.1554
vn -0.8875 -0.4531 -0.0839
vn -0.2169 0.9600 0.1770
vn 0.9427 0.3281 0.0609
vn 0.3386 -0.7711 -0.5392
vn -0.6400 -0.5968 0.4839
vn -0.1389 0.9155 0.3777
vn 0.6890 0.4444 -0.5726
vn -0.1262 -0.6837 -0.7188
vn -0.1335 -0.7213 0.6796
vn 0.1568 0.8478 0.5066
vn 0.1024 0.5533 -0.8266
vn -0.6443 -0.5863 -0.4911
vn 0.2823 -0.8207 0.4967
vn 0.5522 0.7544 0.3549
vn -0.4423 0.6546 -0.6131
vn -0.8733 -0.4791 0.0888
vn 0.4092 -0.8972 0.1658
vn 0.7602 0.6388 -0.1183
vn -0.6532 0.7447 -0.1372
vn -0.6086 -0.3652 0.7044
vn 0.3106 -0.9484 -0.0634
vn 0.5437 0.4996 -0.6744
vn -0.4935 0.8237 0.2794
vn 0.0456 -0.2454 0.9683
vn 0.1799 -0.9769 -0.1152
vn -0.0636 0.3435 -0.9370
vn -0.1632 0.8881 0.4298
vn 0.7177 -0.1223 0.6855
vn 0.1488 -0.9831 -0.1066
vn -0.7187 0.1729 -0.6735
vn 0.0915 0.9378 0.3349
vn 1.0000 0.0028 0.0005
vn 0.1730 -0.9687 -0.1780
vn -1.0000 -0.0040 -0.0007
vn 0.1667 0.9698 0.1782
vn 0.7179 0.1279 -0.6843
vn 0.0960 -0.9359 -0.3388
vn -0.7187 -0.1808 0.6714
vn 0.1442 0.9833 0.1113
vn 0.0467 0.2509 -0.9669
vn -0.1627 -0.8855 -0.4353
vn -0.0650 -0.3510 0.9341
vn 0.1798 0.9761 0.1219
vn -0.6064 0.3706 -0.7036
vn -0.4966 -0.8204 -0.2834
vn 0.5400 -0.5063 0.6724
vn 0.3151 0.9466 0.0684
vn -0.8704 0.4841 -0.0897
vn -0.6577 -0.7408 0.1365
vn 0.7552 -0.6446 0.1194
vn 0.4158 0.8943 -0.1652
vn -0.6424 0.5909 0.4880
vn -0.4457 -0.6502 0.6153
vn 0.5487 -0.7591 -0.3502
vn 0.2871 0.8167 -0.5005
vn -0.1269 0.6879 0.7147
vn 0.1015 -0.5486 0.8299
vn 0.1574 -0.8514 -0.5003
vn -0.1326 0.7162 -0.6852
vn 0.3348 0.7747 0.5364
vn 0.6902 -0.4393 0.5751
vn -0.1339 -0.9180 -0.3733
vn -0.6426 0.5907 -0.4880
vn 0.5063 0.8481 0.1560
vn 0.9446 -0.3227 -0.0599
vn -0.2101 -0.9615 -0.1773
vn -0.8912 0.4461 0.0826
vn 0.3896 0.9080 -0.1540
vn 0.6656 -0.2017 -0.7186
vn -0.1727 -0.9815 -0.0825
vn -0.6401 0.2832 0.7142
vn 0.1747 0.9511 -0.2547
vn -0.0144 -0.0775 -0.9969
vn -0.1802 -0.9802 -0.0825
vn 0.0204 0.1102 0.9937
vn 0.0453 0.9770 -0.2083
vn -0.7000 0.0478 -0.7126
vn -0.2810 -0.9592 -0.0321
vn 0.6966 -0.0677 0.7143
vn 0.0276 0.9831 -0.1809
vn -0.9845 0.1722 -0.0320
vn -0.3549 -0.9195 0.1689
vn 0.9689 -0.2432 0.0450
vn -0.0014 0.9681 -0.2506
vn -0.7133 0.2944 0.6360
vn -0.2256 -0.8641 0.4500
vn 0.6967 -0.4080 -0.5900
vn -0.1718 0.9308 -0.3225
vn -0.0764 0.4118 0.9081
vn 0.1460 -0.7931 0.5913
vn 0.1035 -0.5587 -0.8229
vn -0.4444 0.8690 -0.2175
vn 0.5301 0.5235 0.6670
vn 0.5818 -0.7099 0.3968
vn -0.4155 -0.6877 -0.5953
vn -0.6036 0.7840 0.1451
vn 0.7708 0.6265 0.1158
vn 0.7806 -0.6146 -0.1136
vn -0.5877 -0.7955 -0.1472
vn -0.4273 0.6733 0.6034
vn 0.5750 0.7206 -0.3874
vn 0.5375 -0.5105 -0.6711
vn -0.4335 -0.8776 0.2044
vn 0.1003 0.5417 0.8346
vn 0.1477 0.8023 -0.5784
vn -0.0739 -0.3979 -0.9144
vn -0.1728 -0.9366 0.3049
vn 0.7003 0.3889 0.5986
vn -0.2145 0.8716 -0.4408
vn -0.7146 -0.2800 -0.6411
vn -0.0143 -0.9711 0.2384
vn 0.9741 0.2225 -0.0412
vn -0.3394 0.9251 -0.1700
vn -0.9871 -0.1574 0.0293
vn 0.0101 -0.9834 0.1809
vn 0.7002 0.0464 -0.7124
vn -0.2698 0.9627 0.0200
vn -0.7024 -0.0327 0.7110
vn 0.0330 -0.9749 0.2200
vn 0.0243 -0.1314 -0.9910
vn -0.1805 0.9814 0.0653
vn -0.0172 0.0925 0.9956
vn 0.1739 -0.9468 0.2708
vn -0.6329 -0.3033 -0.7123
vn -0.1850 0.9802 0.0699
vn 0.6613 0.2165 0.7182
vn 0.3995 -0.9017 0.1654
vn -0.8814 -0.4646 -0.0860
vn -0.2279 0.9575 0.1766
vn 0.9395 0.3369 0.0626
vn 0.5201 -0.8400 -0.1545
vn -0.6358 -0.6068 0.4770
vn -0.1471 0.9112 0.3848
vn 0.6870 0.4528 -0.5684
vn 0.3449 -0.7650 -0.5439
vn -0.1351 -0.7296 0.6704
vn 0.1557 0.8418 0.5169
vn 0.1038 0.5612 -0.8211
vn -0.1249 -0.6767 -0.7256
vn 0.2742 -0.8273 0.4903
vn 0.5578 0.7465 0.3627
vn -0.4368 0.6617 -0.6094
vn -0.6473 -0.5786 -0.4962
vn 0.3985 -0.9019 0.1666
vn 0.7685 0.6292 -0.1165
vn -0.6456 0.7510 -0.1384
vn -0.8779 -0.4708 0.0873
vn 0.3031 -0.9514 -0.0553
vn 0.5498 0.4884 -0.6776
vn -0.4882 0.8290 0.2728
vn -0.6122 -0.3565 0.7058
vn 0.1801 -0.9781 -0.1042
vn -0.0613 0.3312 -0.9416
vn -0.1640 0.8923 0.4206
vn 0.0439 -0.2363 0.9707
vn 0.1564 -0.9827 -0.0989
vn -0.7186 0.1598 -0.6768
vn 0.0841 0.9408 0.3283
vn 0.7173 -0.1130 0.6876
vn 0.1834 -0.9669 -0.1777
vn -0.9998 -0.0174 -0.0032
vn 0.1563 0.9714 0.1785
vn 0.9999 0.0122 0.0023
vn 0.1033 -0.9328 -0.3454
vn -0.7186 -0.1938 0.6679
vn 0.1366 0.9835 0.1190
vn 0.7182 0.1372 -0.6821
vn -0.1619 -0.8811 -0.4444
vn -0.0673 -0.3632 0.9293
vn 0.1796 0.9747 0.1330
vn 0.0483 0.2600 -0.9644
vn -0.5018 -0.8149 -0.2900
vn 0.5337 -0.5172 0.6690
vn 0.3225 0.9435 0.0766
vn -0.6026 0.3793 -0.7021
vn -0.6651 -0.7344 0.1354
vn 0.7467 -0.6540 0.1211
vn 0.4265 0.8894 -0.1643
vn -0.8656 0.4923 -0.0912
vn -0.4511 -0.6430 0.6189
vn 0.5429 -0.7668 -0.3424
vn 0.2951 0.8100 -0.5068
vn -0.6392 0.5985 0.4829
vn 0.1001 -0.5406 0.8353
vn 0.1585 -0.8573 -0.4898
vn -0.1310 0.7077 -0.6943
vn -0.1282 0.6947 0.7078
vn 0.6921 -0.4308 0.5792
vn -0.1257 -0.9220 -0.3661
vn -0.6467 0.5805 -0.4948
vn 0.3285 0.7807 0.5316
vn 0.9477 -0.3138 -0.0583
vn -0.1991 -0.9637 -0.1777
vn -0.8971 0.4345 0.0805
vn 0.4976 0.8531 0.1569
vn 0.6681 -0.1925 -0.7187
vn -0.1650 -0.9821 -0.0903
vn -0.6444 0.2705 0.7152
vn 0.3834 0.9118 -0.1468
vn -0.0127 -0.0682 -0.9976
vn -0.1800 -0.9792 -0.0932
vn 0.0179 0.0969 0.9951
vn 0.1752 0.9537 -0.2446
vn -0.6984 0.0571 -0.7134
vn -0.2879 -0.9569 -0.0396
vn 0.6941 -0.0810 0.7153
vn 0.0530 0.9782 -0.2010
vn -0.9828 0.1815 -0.0338
vn -0.3645 -0.9159 0.1683
vn 0.9655 -0.2560 0.0474
vn 0.0385 0.9828 -0.1809
vn -0.7125 0.3036 0.6326
vn -0.2325 -0.8592 0.4558
vn 0.6943 -0.4201 -0.5843
vn 0.0068 0.9660 -0.2586
vn -0.0827 0.4191 0.9041
vn 0.1498 -0.7867 0.5989
vn 0.1120 -0.5720 -0.8125
vn -0.1771 0.9247 -0.3371
vn 0.5213 0.5402 0.6606
vn 0.5906 -0.6955 0.4092
vn -0.4069 -0.6989 -0.5882
vn -0.4524 0.8622 -0.2281
vn 0.7307 0.5580 0.3933
vn 0.7508 -0.6274 0.2066
vn -0.5742 -0.7361 -0.3584
vn -0.5819 0.8060 -0.1079
vt 1.000000 0.000000
vt 0.333333 0.000000
vt 0.666667 0.000000
vt 0.000000 0.000000
vt 0.000000 1.000000
vt 0.012500 1.000000
vt 0.012500 0.750000
vt 0.000000 0.750000
vt 0.000000 0.250000
vt 0.012500 0.250000
vt 0.012500 0.000000
vt 0.000000 0.500000
vt 0.012500 0.500000
vt 0.025000 1.000000
vt 0.025000 0.750000
vt 0.025000 0.250000
vt 0.025000 0.000000
vt 0.025000 0.500000
vt 0.037500 1.000000
vt 0.037500 0.750000
vt 0.037500 0.250000
vt 0.037500 0.000000
vt 0.037500 0.500000
vt 0.050000 1.000000
vt 0.050000 0.750000
vt 0.050000 0.250000
vt 0.050000 0.000000
vt 0.050000 0.500000
vt 0.062500 1.000000
vt 0.062500 0.750000
vt 0.062500 0.250000
vt 0.062500 0.000000
vt 0.062500 0.500000
vt 0.075000 1.000000
vt 0.075000 0.750000
vt 0.075000 0.250000
vt 0.075000 0.000000
vt 0.075000 0.500000
vt 0.087500 1.000000
vt 0.087500 0.750000
vt 0.087500 0.250000
vt 0.087500 0.000000
vt 0.087500 0.500000
vt 0.100000 1.000000
vt 0.100000 0.750000
vt 0.100000 0.250000
vt 0.100000 0.000000
vt 0.100000 0.500000
vt 0.112500 1.000000
vt 0.112500 0.750000
vt 0.112500 0.250000
vt 0.112500 0.000000
vt 0.112500 0.500000
vt 0.125000 1.000000
vt 0.125000 0.750000
vt 0.125000 0.250000
vt 0.125000 0.000000
vt 0.125000 0.500000
vt 0.137500 1.000000
vt 0.137500 0.750000
vt 0.137500 0.250000
vt 0.137500 0.000000
vt 0.137500 0.500000
vt 0.150000 1.000000
vt 0.150000 0.750000
vt 0.150000 0.250000
vt 0.150000 0.000000
vt 0.150000 0.500000
vt 0.162500 1.000000
vt 0.162500 0.750000
vt 0.162500 0.250000
vt 0.162500 0.000000
vt 0.162500 0.500000
vt 0.175000 1.000000
vt 0.175000 0.750000
vt 0.175000 0.250000
vt 0.175000 0.000000
vt 0.175000 0.500000
vt 0.187500 1.000000
vt 0.187500 0.750000
vt 0.187500 0.250000
vt 0.187500 0.000000
vt 0.187500 0.500000
vt 0.200000 1.000000
vt 0.200000 0.750000
vt 0.200000 0.250000
vt 0.200000 0.000000
vt 0.200000 0.500000
vt 0.212500 1.000000
vt 0.212500 0.750000
vt 0.212500 0.250000
vt 0.212500 0.000000
vt 0.212500 0.500000
vt 0.225000 1.000000
vt 0.225000 0.750000
vt 0.225000 0.250000
vt 0.225000 0.000000
vt 0.225000 0.500000
vt 0.237500 1.000000
vt 0.237500 0.750000
vt 0.237500 0.250000
vt 0.237500 0.000000
vt 0.237500 0.500000
vt 0.250000 1.000000
vt 0.250000 0.750000
vt 0.250000 0.250000
vt 0.250000 0.000000
vt 0.250000 0.500000
vt 0.262500 1.000000
vt 0.262500 0.750000
vt 0.262500 0.250000
vt 0.262500 0.000000
vt 0.262500 0.500000
vt 0.275000 1.000000
vt 0.275000 0.750000
vt 0.275000 0.250000
vt 0.275000 0.000000
vt 0.275000 0.500000
vt 0.287500 1.000000
vt 0.287500 0.750000
vt 0.287500 0.250000
vt 0.287500 0.000000
vt 0.287500 0.500000
vt 0.300000 1.000000
vt 0.300000 0.750000
vt 0.300000 0.250000
vt 0.300000 0.000000
vt 0.300000 0.500000
vt 0.312500 1.000000
vt 0.312500 0.750000
vt 0.312500 0.250000
vt 0.312500 0.000000
vt 0.312500 0.500000
vt 0.325000 1.000000
vt 0.325000 0.750000
vt 0.325000 0.250000
vt 0.325000 0.000000
vt 0.325000 0.500000
vt 0.337500 1.000000
vt 0.337500 0.750000
vt 0.337500 0.250000
vt 0.337500 0.000000
vt 0.337500 0.500000
vt 0.350000 1.000000
vt 0.350000 0.750000
vt 0.350000 0.250000
vt 0.350000 0.000000
vt 0.350000 0.500000
vt 0.362500 1.000000
vt 0.362500 0.750000
vt 0.362500 0.250000
vt 0.362500 0.000000
vt 0.362500 0.500000
vt 0.375000 1.000000
vt 0.375000 0.750000
vt 0.375000 0.250000
vt 0.375000 0.000000
vt 0.375000 0.500000
vt 0.387500 1.000000
vt 0.387500 0.750000
vt 0.387500 0.250000
vt 0.387500 0.000000
vt 0.387500 0.500000
vt 0.400000 1.000000
vt 0.400000 0.750000
vt 0.400000 0.250000
vt 0.400000 0.000000
vt 0.400000 0.500000
vt 0.412500 1.000000
vt 0.412500 0.750000
vt 0.412500 0.250000
vt 0.412500 0.000000
vt 0.412500 0.500000
vt 0.425000 1.000000
vt 0.425000 0.750000
vt 0.425000 0.250000
vt 0.425000 0.000000
vt 0.425000 0.500000
vt 0.437500 1.000000
vt 0.437500 0.750000
vt 0.437500 0.250000
vt 0.437500 0.000000
vt 0.437500 0.500000
vt 0.450000 1.000000
vt 0.450000 0.750000
vt 0.450000 0.250000
vt 0.450000 0.000000
vt 0.450000 0.500000
vt 0.462500 1.000000
vt 0.462500 0.750000
vt 0.462500 0.250000
vt 0.462500 0.000000
vt 0.462500 0.500000
vt 0.475000 1.000000
vt 0.475000 0.750000
vt 0.475000 0.250000
vt 0.475000 0.000000
vt 0.475000 0.500000
vt 0.487500 1.000000
vt 0.487500 0.750000
vt 0.487500 0.250000
vt 0.487500 0.000000
vt 0.487500 0.500000
vt 0.500000 1.000000
vt 0.500000 0.750000
vt 0.500000 0.250000
vt 0.500000 0.000000
vt 0.500000 0.500000
vt 0.512500 1.000000
vt 0.512500 0.750000
vt 0.512500 0.250000
vt 0.512500 0.000000
vt 0.512500 0.500000
vt 0.525000 1.000000
vt 0.525000 0.750000
vt 0.525000 0.250000
vt 0.525000 0.000000
vt 0.525000 0.500000
vt 0.537500 1.000000
vt 0.537500 0.750000
vt 0.537500 0.250000
vt 0.537500 0.000000
vt 0.537500 0.500000
vt 0.550000 1.000000
vt 0.550000 0.750000
vt 0.550000 0.250000
vt 0.550000 0.000000
vt 0.550000 0.500000
vt 0.562500 1.000000
vt 0.562500 0.750000
vt 0.562500 0.250000
vt 0.562500 0.000000
vt 0.562500 0.500000
vt 0.575000 1.000000
vt 0.575000 0.750000
vt 0.575000 0.250000
vt 0.575000 0.000000
vt 0.575000 0.500000
vt 0.587500 1.000000
vt 0.587500 0.750000
vt 0.587500 0.250000
vt 0.587500 0.000000
vt 0.587500 0.500000
vt 0.600000 1.000000
vt 0.600000 0.750000
vt 0.600000 0.250000
vt 0.600000 0.000000
vt 0.600000 0.500000
vt 0.612500 1.000000
vt 0.612500 0.750000
vt 0.612500 0.250000
vt 0.612500 0.000000
vt 0.612500 0.500000
vt 0.625000 1.000000
vt 0.625000 0.750000
vt 0.625000 0.250000
vt 0.625000 0.000000
vt 0.625000 0.500000
vt 0.637500 1.000000
vt 0.637500 0.750000
vt 0.637500 0.250000
vt 0.637500 0.000000
vt 0.637500 0.500000
vt 0.650000 1.000000
vt 0.650000 0.750000
vt 0.650000 0.250000
vt 0.650000 0.000000
vt 0.650000 0.500000
vt 0.662500 1.000000
vt 0.662500 0.750000
vt 0.662500 0.250000
vt 0.662500 0.000000
vt 0.662500 0.500000
vt 0.675000 1.000000
vt 0.675000 0.750000
vt 0.675000 0.250000
vt 0.675000 0.000000
vt 0.675000 0.500000
vt 0.687500 1.000000
vt 0.687500 0.750000
vt 0.687500 0.250000
vt 0.687500 0.000000
vt 0.687500 0.500000
vt 0.700000 1.000000
vt 0.700000 0.750000
vt 0.700000 0.250000
vt 0.700000 0.000000
vt 0.700000 0.500000
vt 0.712500 1.000000
vt 0.712500 0.750000
vt 0.712500 0.250000
vt 0.712500 0.000000
vt 0.712500 0.500000
vt 0.725000 1.000000
vt 0.725000 0.750000
vt 0.725000 0.250000
vt 0.725000 0.000000
vt 0.725000 0.500000
vt 0.737500 1.000000
vt 0.737500 0.750000
vt 0.737500 0.250000
vt 0.737500 0.000000
vt 0.737500 0.500000
vt 0.750000 1.000000
vt 0.750000 0.750000
vt 0.750000 0.250000
vt 0.750000 0.000000
vt 0.750000 0.500000
vt 0.762500 1.000000
vt 0.762500 0.750000
vt 0.762500 0.250000
vt 0.762500 0.000000
vt 0.762500 0.500000
vt 0.775000 1.000000
vt 0.775000 0.750000
vt 0.775000 0.250000
vt 0.775000 0.000000
vt 0.775000 0.500000
vt 0.787500 1.000000
vt 0.787500 0.750000
vt 0.787500 0.250000
vt 0.787500 0.000000
vt 0.787500 0.500000
vt 0.800000 1.000000
vt 0.800000 0.750000
vt 0.800000 0.250000
vt 0.800000 0.000000
vt 0.800000 0.500000
vt 0.812500 1.000000
vt 0.812500 0.750000
vt 0.812500 0.250000
vt 0.812500 0.000000
vt 0.812500 0.500000
vt 0.825000 1.000000
vt 0.825000 0.750000
vt 0.825000 0.250000
vt 0.825000 0.000000
vt 0.825000 0.500000
vt 0.837500 1.000000
vt 0.837500 0.750000
vt 0.837500 0.250000
vt 0.837500 0.000000
vt 0.837500 0.500000
vt 0.850000 1.000000
vt 0.850000 0.750000
vt 0.850000 0.250000
vt 0.850000 0.000000
vt 0.850000 0.500000
vt 0.862500 1.000000
vt 0.862500 0.750000
vt 0.862500 0.250000
vt 0.862500 0.000000
vt 0.862500 0.500000
vt 0.875000 1.000000
vt 0.875000 0.750000
vt 0.875000 0.250000
vt 0.875000 0.000000
vt 0.875000 0.500000
vt 0.887500 1.000000
vt 0.887500 0.750000
vt 0.887500 0.250000
vt 0.887500 0.000000
vt 0.887500 0.500000
vt 0.900000 1.000000
vt 0.900000 0.750000
vt 0.900000 0.250000
vt 0.900000 0.000000
vt 0.900000 0.500000
vt 0.912500 1.000000
vt 0.912500 0.750000
vt 0.912500 0.250000
vt 0.912500 0.000000
vt 0.912500 0.500000
vt 0.925000 1.000000
vt 0.925000 0.750000
vt 0.925000 0.250000
vt 0.925000 0.000000
vt 0.925000 0.500000
vt 0.937500 1.000000
vt 0.937500 0.750000
vt 0.937500 0.250000
vt 0.937500 0.000000
vt 0.937500 0.500000
vt 0.950000 1.000000
vt 0.950000 0.750000
vt 0.950000 0.250000
vt 0.950000 0.000000
vt 0.950000 0.500000
vt 0.962500 1.000000
vt 0.962500 0.750000
vt 0.962500 0.250000
vt 0.962500 0.000000
vt 0.962500 0.500000
vt 0.975000 1.000000
vt 0.975000 0.750000
vt 0.975000 0.250000
vt 0.975000 0.000000
vt 0.975000 0.500000
vt 0.987500 1.000000
vt 0.987500 0.750000
vt 0.987500 0.250000
vt 0.987500 0.000000
vt 0.987500 0.500000
vt 1.000000 1.000000
vt 1.000000 0.750000
vt 1.000000 0.250000
vt 1.000000 0.500000
s 1
f 336/408/327 334/409/327 335/410/327
f 336/408/327 333/411/327 334/409/327
f 338/409/328 340/408/328 339/410/328
f 338/409/328 337/411/328 340/408/328
f 341/412/329 345/413/333 348/414/336 344/415/332
f 342/416/330 346/417/334 345/418/333 341/411/329
f 343/419/331 347/420/335 346/417/334 342/416/330
f 344/415/332 348/414/336 347/420/335 343/419/331
f 345/413/333 349/421/337 352/422/340 348/414/336
f 346/417/334 350/423/338 349/424/337 345/418/333
f 347/420/335 351/425/339 350/423/338 346/417/334
f 348/414/336 352/422/340 351/425/339 347/420/335
f 349/421/337 353/426/341 356/427/344 352/422/340
f 350/423/338 354/428/342 353/429/341 349/424/337
f 351/425/339 355/430/343 354/428/342 350/423/338
f 352/422/340 356/427/344 355/430/343 351/425/339
f 353/426/341 357/431/345 360/432/348 356/427/344
f 354/428/342 358/433/346 357/434/345 353/429/341
f 355/430/343 359/435/347 358/433/346 354/428/342
f 356/427/344 360/432/348 359/435/347 355/430/343
f 357/431/345 361/436/349 364/437/352 360/432/348
f 358/433/346 362/438/350 361/439/349 357/434/345
f 359/435/347 363/440/351 362/438/350 358/433/346
f 360/432/348 364/437/352 363/440/351 359/435/347
f 361/436/349 365/441/353 368/442/356 364/437/352
f 362/438/350 366/443/354 365/444/353 361/439/349
f 363/440/351 367/445/355 366/443/354 362/438/350
f 364/437/352 368/442/356 367/445/355 363/440/351
f 365/441/353 369/446/357 372/447/360 368/442/356
f 366/443/354 370/448/358 369/449/357 365/444/353
f 367/445/355 371/450/359 370/448/358 366/443/354
f 368/442/356 372/447/360 371/450/359 367/445/355
f 369/446/357 373/451/361 376/452/364 372/447/360
f 370/448/358 374/453/362 373/454/361 369/449/357
f 371/450/359 375/455/363 374/453/362 370/448/358
f 372/447/360 376/452/364 375/455/363 371/450/359
f 373/451/361 377/456/365 380/457/368 376/452/364
f 374/453/362 378/458/366 377/459/365 373/454/361
f 375/455/363 379/460/367 378/458/366 374/453/362
f 376/452/364 380/457/368 379/460/367 375/455/363
f 377/456/365 381/461/369 384/462/372 380/457/368
f 378/458/366 382/463/370 381/464/369 377/459/365
f 379/460/367 383/465/371 382/463/370 378/458/366
f 380/457/368 384/462/372 383/465/371 379/460/367
f 381/461/369 385/466/373 388/467/376 384/462/372
f 382/463/370 386/468/374 385/469/373 381/464/369
f 383/465/371 387/470/375 386/468/374 382/463/370
f 384/462/372 388/467/376 387/470/375 383/465/371
f 385/466/373 389/471/377 392/472/380 388/467/376
f 386/468/374 390/473/378 389/474/377 385/469/373
f 387/470/375 391/475/379 390/473/378 386/468/374
f 388/467/376 392/472/380 391/475/379 387/470/375
f 389/471/377 393/476/381 396/477/384 392/472/380
f 390/473/378 394/478/382 393/479/381 389/474/377
f 391/475/379 395/480/383 394/478/382 390/473/378
f 392/472/380 396/477/384 395/480/383 391/475/379
f 393/476/381 397/481/385 400/482/388 396/477/384
f 394/478/382 398/483/386 397/484/385 393/479/381
f 395/480/383 399/485/387 398/483/386 394/478/382
f 396/477/384 400/482/388 399/485/387 395/480/383
f 397/481/385 401/486/389 404/487/392 400/482/388
f 398/483/386 402/488/390 401/489/389 397/484/385
f 399/485/387 403/490/391 402/488/390 398/483/386
f 400/482/388 404/487/392 403/490/391 399/485/387
f 401/486/389 405/491/393 408/492/396 404/487/392
f 402/488/390 406/493/394 405/494/393 401/489/389
f 403/490/391 407/495/395 406/493/394 402/488/390
f 404/487/392 408/492/396 407/495/395 403/490/391
f 405/491/393 409/496/397 412/497/400 408/492/396
f 406/493/394 410/498/398 409/499/397 405/494/393
f 407/495/395 411/500/399 410/498/398 406/493/394
f 408/492/396 412/497/400 411/500/399 407/495/395
f 409/496/397 413/501/401 416/502/404 412/497/400
f 410/498/398 414/503/402 413/504/401 409/499/397
f 411/500/399 415/505/403 414/503/402 410/498/398
f 412/497/400 416/502/404 415/505/403 411/500/399
f 413/501/401 417/506/405 420/507/408 416/502/404
f 414/503/402 418/508/406 417/509/405 413/504/401
f 415/505/403 419/510/407 418/508/406 414/503/402
f 416/502/404 420/507/408 419/510/407 415/505/403
f 417/506/405 421/511/409 424/512/412 420/507/408
f 418/508/406 422/513/410 421/514/409 417/509/405
f 419/510/407 423/515/411 422/513/410 418/508/406
f 420/507/408 424/512/412 423/515/411 419/510/407
f 421/511/409 425/516/413 428/517/416 424/512/412
f 422/513/410 426/518/414 425/519/413 421/514/409
f 423/515/411 427/520/415 426/518/414 422/513/410
f 424/512/412 428/517/416 427/520/415 423/515/411
f 425/516/413 429/521/417 432/522/420 428/517/416
f 426/518/414 430/523/418 429/524/417 425/519/413
f 427/520/415 431/525/419 430/523/418 426/518/414
f 428/517/416 432/522/420 431/525/419 427/520/415
f 429/521/417 433/526/421 436/527/424 432/522/420
f 430/523/418 434/528/422 433/529/421 429/524/417
f 431/525/419 435/530/423 434/528/422 430/523/418
f 432/522/420 436/527/424 435/530/423 431/525/419
f 433/526/421 437/531/425 440/532/428 436/527/424
f 434/528/422 438/533/426 437/534/425 433/529/421
f 435/530/423 439/535/427 438/533/426 434/528/422
f 436/527/424 440/532/428 439/535/427 435/530/423
f 437/531/425 441/536/429 444/537/432 440/532/428
f 438/533/426 442/538/430 441/539/429 437/534/425
f 439/535/427 443/540/431 442/538/430 438/533/426
f 440/532/428 444/537/432 443/540/431 439/535/427
f 441/536/429 445/541/433 448/542/436 444/537/432
f 442/538/430 446/543/434 445/544/433 441/539/429
f 443/540/431 447/545/435 446/543/434 442/538/430
f 444/537/432 448/542/436 447/545/435 443/540/431
f 445/541/433 449/546/437 452/547/440 448/542/436
f 446/543/434 450/548/438 449/549/437 445/544/433
f 447/545/435 451/550/439 450/548/438 446/543/434
f 448/542/436 452/547/440 451/550/439 447/545/435
f 449/546/437 453/551/441 456/552/444 452/547/440
f 450/548/438 454/553/442 453/554/441 449/549/437
f 451/550/439 455/555/443 454/553/442 450/548/438
f 452/547/440 456/552/444 455/555/443 451/550/439
f 453/551/441 457/556/445 460/557/448 456/552/444
f 454/553/442 458/558/446 457/559/445 453/554/441
f 455/555/443 459/560/447 458/558/446 454/553/442
f 456/552/444 460/557/448 459/560/447 455/555/443
f 457/556/445 461/561/449 464/562/452 460/557/448
f 458/558/446 462/563/450 461/564/449 457/559/445
f 459/560/447 463/565/451 462/563/450 458/558/446
f 460/557/448 464/562/452 463/565/451 459/560/447
f 461/561/449 465/566/453 468/567/456 464/562/452
f 462/563/450 466/568/454 465/569/453 461/564/449
f 463/565/451 467/570/455 466/568/454 462/563/450
f 464/562/452 468/567/456 467/570/455 463/565/451
f 465/566/453 469/571/457 472/572/460 468/567/456
f 466/568/454 470/573/458 469/574/457 465/569/453
f 467/570/455 471/575/459 470/573/458 466/568/454
f 468/567/456 472/572/460 471/575/459 467/570/455
f 469/571/457 473/576/461 476/577/464 472/572/460
f 470/573/458 474/578/462 473/579/461 469/574/457
f 471/575/459 475/580/463 474/578/462 470/573/458
f 472/572/460 476/577/464 475/580/463 471/575/459
f 473/576/461 477/581/465 480/582/468 476/577/464
f 474/578/462 478/583/466 477/584/465 473/579/461
f 475/580/463 479/585/467 478/583/466 474/578/462
f 476/577/464 480/582/468 479/585/467 475/580/463
f 477/581/465 481/586/469 484/587/472 480/582/468
f 478/583/466 482/588/470 481/589/469 477/584/465
f 479/585/467 483/590/471 482/588/470 478/583/466
f 480/582/468 484/587/472 483/590/471 479/585/467
f 481/586/469 485/591/473 488/592/476 484/587/472
f 482/588/470 486/593/474 485/594/473 481/589/469
f 483/590/471 487/595/475 486/593/474 482/588/470
f 484/587/472 488/592/476 487/595/475 483/590/471
f 485/591/473 489/596/477 492/597/480 488/592/476
f 486/593/474 490/598/478 489/599/477 485/594/473
f 487/595/475 491/600/479 490/598/478 486/593/474
f 488/592/476 492/597/480 491/600/479 487/595/475
f 489/596/477 493/601/481 496/602/484 492/597/480
f 490/598/478 494/603/482 493/604/481 489/599/477
f 491/600/479 495/605/483 494/603/482 490/598/478
f 492/597/480 496/602/484 495/605/483 491/600/479
f 493/601/481 497/606/485 500/607/488 496/602/484
f 494/603/482 498/608/486 497/609/485 493/604/481
f 495/605/483 499/610/487 498/608/486 494/603/482
f 496/602/484 500/607/488 499/610/487 495/605/483
f 497/606/485 501/611/489 504/612/492 500/607/488
f 498/608/486 502/613/490 501/614/489 497/609/485
f 499/610/487 503/615/491 502/613/490 498/608/486
f 500/607/488 504/612/492 503/615/491 499/610/487
f 501/611/489 505/616/493 508/617/496 504/612/492
f 502/613/490 506/618/494 505/619/493 501/614/489
f 503/615/491 507/620/495 506/618/494 502/613/490
f 504/612/492 508/617/496 507/620/495 503/615/491
f 505/616/493 509/621/497 512/622/500 508/617/496
f 506/618/494 510/623/498 509/624/497 505/619/493
f 507/620/495 511/625/499 510/623/498 506/618/494
f 508/617/496 512/622/500 511/625/499 507/620/495
f 509/621/497 513/626/501 516/627/504 512/622/500
f 510/623/498 514/628/502 513/629/501 509/624/497
f 511/625/499 515/630/503 514/628/502 510/623/498
f 512/622/500 516/627/504 515/630/503 511/625/499
f 513/626/501 517/631/505 520/632/508 516/627/504
f 514/628/502 518/633/506 517/634/505 513/629/501
f 515/630/503 519/635/507 518/633/506 514/628/502
f 516/627/504 520/632/508 519/635/507 515/630/503
f 517/631/505 521/636/509 524/637/512 520/632/508
f 518/633/506 522/638/510 521/639/509 517/634/505
f 519/635/507 523/640/511 522/638/510 518/633/506
f 520/632/508 524/637/512 523/640/511 519/635/507
f 521/636/509 525/641/513 528/642/516 524/637/512
f 522/638/510 526/643/514 525/644/513 521/639/509
f 523/640/511 527/645/515 526/643/514 522/638/510
f 524/637/512 528/642/516 527/645/515 523/640/511
f 525/641/513 529/646/517 532/647/520 528/642/516
f 526/643/514 530/648/518 529/649/517 525/644/513
f 527/645/515 531/650/519 530/648/518 526/643/514
f 528/642/516 532/647/520 531/650/519 527/645/515
f 529/646/517 533/651/521 536/652/524 532/647/520
f 530/648/518 534/653/522 533/654/521 529/649/517
f 531/650/519 535/655/523 534/653/522 530/648/518
f 532/647/520 536/652/524 535/655/523 531/650/519
f 533/651/521 537/656/525 540/657/528 536/652/524
f 534/653/522 538/658/526 537/659/525 533/654/521
f 535/655/523 539/660/527 538/658/526 534/653/522
f 536/652/524 540/657/528 539/660/527 535/655/523
f 537/656/525 541/661/529 544/662/532 540/657/528
f 538/658/526 542/663/530 541/664/529 537/659/525
f 539/660/527 543/665/531 542/663/530 538/658/526
f 540/657/528 544/662/532 543/665/531 539/660/527
f 541/661/529 545/666/533 548/667/536 544/662/532
f 542/663/530 546/668/534 545/669/533 541/664/529
f 543/665/531 547/670/535 546/668/534 542/663/530
f 544/662/532 548/667/536 547/670/535 543/665/531
f 545/666/533 549/671/537 552/672/540 548/667/536
f 546/668/534 550/673/538 549/674/537 545/669/533
f 547/670/535 551/675/539 550/673/538 546/668/534
f 548/667/536 552/672/540 551/675/539 547/670/535
f 549/671/537 553/676/541 556/677/544 552/672/540
f 550/673/538 554/678/542 553/679/541 549/674/537
f 551/675/539 555/680/543 554/678/542 550/673/538
f 552/672/540 556/677/544 555/680/543 551/675/539
f 553/676/541 557/681/545 560/682/548 556/677/544
f 554/678/542 558/683/546 557/684/545 553/679/541
f 555/680/543 559/685/547 558/683/546 554/678/542
f 556/677/544 560/682/548 559/685/547 555/680/543
f 557/681/545 561/686/549 564/687/552 560/682/548
f 558/683/546 562/688/550 561/689/549 557/684/545
f 559/685/547 563/690/551 562/688/550 558/683/546
f 560/682/548 564/687/552 563/690/551 559/685/547
f 561/686/549 565/691/553 568/692/556 564/687/552
f 562/688/550 566/693/554 565/694/553 561/689/549
f 563/690/551 567/695/555 566/693/554 562/688/550
f 564/687/552 568/692/556 567/695/555 563/690/551
f 565/691/553 569/696/557 572/697/560 568/692/556
f 566/693/554 570/698/558 569/699/557 565/694/553
f 567/695/555 571/700/559 570/698/558 566/693/554
f 568/692/556 572/697/560 571/700/559 567/695/555
f 569/696/557 573/701/561 576/702/564 572/697/560
f 570/698/558 574/703/562 573/704/561 569/699/557
f 571/700/559 575/705/563 574/703/562 570/698/558
f 572/697/560 576/702/564 575/705/563 571/700/559
f 573/701/561 577/706/565 580/707/568 576/702/564
f 574/703/562 578/708/566 577/709/565 573/704/561
f 575/705/563 579/710/567 578/708/566 574/703/562
f 576/702/564 580/707/568 579/710/567 575/705/563
f 577/706/565 581/711/569 584/712/572 580/707/568
f 578/708/566 582/713/570 581/714/569 577/709/565
f 579/710/567 583/715/571 582/713/570 578/708/566
f 580/707/568 584/712/572 583/715/571 579/710/567
f 581/711/569 585/716/573 588/717/576 584/712/572
f 582/713/570 586/718/574 585/719/573 581/714/569
f 583/715/571 587/720/575 586/718/574 582/713/570
f 584/712/572 588/717/576 587/720/575 583/715/571
f 585/716/573 589/721/577 592/722/580 588/717/576
f 586/718/574 590/723/578 589/724/577 585/719/573
f 587/720/575 591/725/579 590/723/578 586/718/574
f 588/717/576 592/722/580 591/725/579 587/720/575
f 589/721/577 593/726/581 596/727/584 592/722/580
f 590/723/578 594/728/582 593/729/581 589/724/577
f 591/725/579 595/730/583 594/728/582 590/723/578
f 592/722/580 596/727/584 595/730/583 591/725/579
f 593/726/581 597/731/585 600/732/588 596/727/584
f 594/728/582 598/733/586 597/734/585 593/729/581
f 595/730/583 599/735/587 598/733/586 594/728/582
f 596/727/584 600/732/588 599/735/587 595/730/583
f 597/731/585 601/736/589 604/737/592 600/732/588
f 598/733/586 602/738/590 601/739/589 597/734/585
f 599/735/587 603/740/591 602/738/590 598/733/586
f 600/732/588 604/737/592 603/740/591 599/735/587
f 601/736/589 605/741/593 608/742/596 604/737/592
f 602/738/590 606/743/594 605/744/593 601/739/589
f 603/740/591 607/745/595 606/743/594 602/738/590
f 604/737/592 608/742/596 607/745/595 603/740/591
f 605/741/593 609/746/597 612/747/600 608/742/596
f 606/743/594 610/748/598 609/749/597 605/744/593
f 607/745/595 611/750/599 610/748/598 606/743/594
f 608/742/596 612/747/600 611/750/599 607/745/595
f 609/746/597 613/751/601 616/752/604 612/747/600
f 610/748/598 614/753/602 613/754/601 609/749/597
f 611/750/599 615/755/603 614/753/602 610/748/598
f 612/747/600 616/752/604 615/755/603 611/750/599
f 613/751/601 617/756/605 620/757/608 616/752/604
f 614/753/602 618/758/606 617/759/605 613/754/601
f 615/755/603 619/760/607 618/758/606 614/753/602
f 616/752/604 620/757/608 619/760/607 615/755/603
f 617/756/605 621/761/609 624/762/612 620/757/608
f 618/758/606 622/763/610 621/764/609 617/759/605
f 619/760/607 623/765/611 622/763/610 618/758/606
f 620/757/608 624/762/612 623/765/611 619/760/607
f 621/761/609 625/766/613 628/767/616 624/762/612
f 622/763/610 626/768/614 625/769/613 621/764/609
f 623/765/611 627/770/615 626/768/614 622/763/610
f 624/762/612 628/767/616 627/770/615 623/765/611
f 625/766/613 629/771/617 632/772/620 628/767/616
f 626/768/614 630/773/618 629/774/617 625/769/613
f 627/770/615 631/775/619 630/773/618 626/768/614
f 628/767/616 632/772/620 631/775/619 627/770/615
f 629/771/617 633/776/621 636/777/624 632/772/620
f 630/773/618 634/778/622 633/779/621 629/774/617
f 631/775/619 635/780/623 634/778/622 630/773/618
f 632/772/620 636/777/624 635/780/623 631/775/619
f 633/776/621 637/781/625 640/782/628 636/777/624
f 634/778/622 638/783/626 637/784/625 633/779/621
f 635/780/623 639/785/627 638/783/626 634/778/622
f 636/777/624 640/782/628 639/785/627 635/780/623
f 637/781/625 641/786/629 644/787/632 640/782/628
f 638/783/626 642/788/630 641/789/629 637/784/625
f 639/785/627 643/790/631 642/788/630 638/783/626
f 640/782/628 644/787/632 643/790/631 639/785/627
f 641/786/629 645/791/633 648/792/636 644/787/632
f 642/788/630 646/793/634 645/794/633 641/789/629
f 643/790/631 647/795/635 646/793/634 642/788/630
f 644/787/632 648/792/636 647/795/635 643/790/631
f 645/791/633 649/796/637 652/797/640 648/792/636
f 646/793/634 650/798/638 649/799/637 645/794/633
f 647/795/635 651/800/639 650/798/638 646/793/634
f 648/792/636 652/797/640 651/800/639 647/795/635
f 649/796/637 653/801/641 656/802/644 652/797/640
f 650/798/638 654/803/642 653/804/641 649/799/637
f 651/800/639 655/805/643 654/803/642 650/798/638
f 652/797/640 656/802/644 655/805/643 651/800/639
f 653/801/641 657/806/645 660/807/648 656/802/644
f 654/803/642 658/808/646 657/809/645 653/804/641
f 655/805/643 659/810/647 658/808/646 654/803/642
f 656/802/644 660/807/648 659/810/647 655/805/643
f 657/806/645 661/811/649 664/812/652 660/807/648
f 658/808/646 662/813/650 661/408/649 657/809/645
f 659/810/647 663/814/651 662/813/650 658/808/646
f 660/807/648 664/812/652 663/814/651 659/810/647
